G04 MADE WITH FRITZING*
G04 WWW.FRITZING.ORG*
G04 DOUBLE SIDED*
G04 HOLES PLATED*
G04 CONTOUR ON CENTER OF CONTOUR VECTOR*
%ASAXBY*%
%FSLAX23Y23*%
%MOIN*%
%OFA0B0*%
%SFA1.0B1.0*%
%ADD10C,0.070000*%
%ADD11C,0.162000*%
%ADD12C,0.075000*%
%ADD13C,0.078000*%
%ADD14C,0.055433*%
%ADD15C,0.106614*%
%ADD16R,0.069972X0.070000*%
%ADD17R,0.075000X0.075000*%
%ADD18C,0.024000*%
%ADD19C,0.020000*%
%LNCOPPER0*%
G90*
G70*
G54D10*
X666Y1541D03*
X666Y1441D03*
X666Y1341D03*
X666Y1241D03*
X666Y1141D03*
X666Y1041D03*
X666Y941D03*
X666Y841D03*
X666Y741D03*
X666Y641D03*
X666Y541D03*
X666Y441D03*
X666Y341D03*
X666Y241D03*
X666Y141D03*
X1266Y1541D03*
X1266Y1441D03*
X1266Y1341D03*
X1266Y1241D03*
X1266Y1141D03*
X1266Y1041D03*
X1266Y941D03*
X1266Y841D03*
X1266Y741D03*
X1266Y641D03*
X1266Y541D03*
X1266Y441D03*
X1266Y341D03*
X1266Y241D03*
X1266Y141D03*
G54D11*
X366Y387D03*
X367Y99D03*
X515Y262D03*
G54D12*
X566Y499D03*
X266Y499D03*
X566Y599D03*
X266Y599D03*
X566Y699D03*
X266Y699D03*
X566Y799D03*
X266Y799D03*
X566Y899D03*
X266Y899D03*
X566Y999D03*
X266Y999D03*
X566Y1099D03*
X266Y1099D03*
X566Y1199D03*
X266Y1199D03*
X566Y1299D03*
X266Y1299D03*
X1366Y1298D03*
X1666Y1298D03*
X1366Y1198D03*
X1666Y1198D03*
X1366Y1098D03*
X1666Y1098D03*
X1366Y998D03*
X1666Y998D03*
X1366Y898D03*
X1666Y898D03*
X1366Y798D03*
X1666Y798D03*
X1366Y698D03*
X1666Y698D03*
X1366Y598D03*
X1666Y598D03*
X1366Y498D03*
X1666Y498D03*
G54D13*
X1866Y658D03*
X1766Y658D03*
X66Y1158D03*
X166Y1158D03*
X66Y1058D03*
X166Y1058D03*
X1866Y758D03*
X1766Y758D03*
X66Y958D03*
X166Y958D03*
X1866Y858D03*
X1766Y858D03*
X66Y858D03*
X166Y858D03*
X1866Y958D03*
X1766Y958D03*
X66Y758D03*
X166Y758D03*
X1866Y1058D03*
X1766Y1058D03*
X66Y658D03*
X166Y658D03*
X1866Y1158D03*
X1766Y1158D03*
X66Y558D03*
X166Y558D03*
X1866Y1258D03*
X1766Y1258D03*
X66Y1258D03*
X166Y1258D03*
X1866Y558D03*
X1766Y558D03*
G54D14*
X1278Y1843D03*
X1361Y1843D03*
X1463Y1843D03*
X1546Y1843D03*
X1278Y1745D03*
X1546Y1745D03*
G54D15*
X1412Y1993D03*
G54D14*
X402Y1842D03*
X485Y1842D03*
X588Y1842D03*
X670Y1842D03*
X402Y1744D03*
X670Y1744D03*
G54D15*
X536Y1992D03*
G54D12*
X1629Y1610D03*
X1547Y1552D03*
X410Y1556D03*
X328Y1614D03*
X675Y1630D03*
X347Y1401D03*
X1271Y1630D03*
X1599Y1400D03*
X966Y1058D03*
X966Y1458D03*
X866Y1058D03*
X866Y1458D03*
G54D16*
X666Y1541D03*
G54D17*
X566Y499D03*
X1366Y1298D03*
G54D18*
X1333Y75D02*
X1208Y77D01*
D02*
X1208Y77D02*
X1160Y1287D01*
D02*
X1364Y469D02*
X1333Y75D01*
D02*
X1160Y1287D02*
X1240Y1327D01*
D02*
X1438Y1153D02*
X1438Y511D01*
D02*
X1438Y511D02*
X1377Y36D01*
D02*
X1377Y36D02*
X1200Y35D01*
D02*
X1200Y35D02*
X695Y135D01*
D02*
X1390Y1183D02*
X1438Y1153D01*
D02*
X1295Y1445D02*
X1635Y1498D01*
D02*
X1635Y1498D02*
X1631Y1581D01*
D02*
X433Y1573D02*
X647Y1727D01*
D02*
X314Y1529D02*
X340Y1428D01*
D02*
X323Y1585D02*
X314Y1529D01*
D02*
X329Y1771D02*
X382Y1822D01*
D02*
X328Y1642D02*
X329Y1771D01*
D02*
X1299Y1823D02*
X1355Y1766D01*
D02*
X1355Y1766D02*
X1528Y1574D01*
D02*
X1104Y1800D02*
X699Y1747D01*
D02*
X977Y1485D02*
X1104Y1800D01*
D02*
X1021Y1012D02*
X689Y758D01*
D02*
X1179Y1567D02*
X1021Y1012D01*
D02*
X1248Y1613D02*
X1179Y1567D01*
D02*
X1343Y1937D02*
X1441Y1861D01*
D02*
X1213Y1917D02*
X1343Y1937D01*
D02*
X1104Y1800D02*
X1213Y1917D01*
D02*
X424Y1532D02*
X551Y1324D01*
D02*
X1561Y1720D02*
X1614Y1634D01*
D02*
X1482Y1821D02*
X1528Y1767D01*
D02*
X365Y1257D02*
X440Y482D01*
D02*
X473Y399D02*
X494Y329D01*
D02*
X440Y482D02*
X473Y399D01*
D02*
X538Y1293D02*
X365Y1257D01*
D02*
X507Y723D02*
X491Y496D01*
D02*
X501Y441D02*
X540Y407D01*
D02*
X491Y496D02*
X501Y441D01*
D02*
X549Y776D02*
X507Y723D01*
D02*
X540Y407D02*
X640Y354D01*
G54D19*
X1623Y1571D02*
X1591Y1616D01*
X1636Y1648D01*
X1668Y1603D01*
X1623Y1571D01*
D02*
X371Y1550D02*
X403Y1595D01*
X448Y1563D01*
X416Y1518D01*
X371Y1550D01*
D02*
G04 End of Copper0*
M02*