G04 MADE WITH FRITZING*
G04 WWW.FRITZING.ORG*
G04 DOUBLE SIDED*
G04 HOLES PLATED*
G04 CONTOUR ON CENTER OF CONTOUR VECTOR*
%ASAXBY*%
%FSLAX23Y23*%
%MOIN*%
%OFA0B0*%
%SFA1.0B1.0*%
%ADD10C,0.080000*%
%ADD11C,0.172000*%
%ADD12C,0.085000*%
%ADD13C,0.088000*%
%ADD14C,0.135984*%
%ADD15C,0.065433*%
%ADD16C,0.116614*%
%ADD17C,0.096614*%
%ADD18C,0.112362*%
%ADD19R,0.079972X0.080000*%
%ADD20R,0.085000X0.085000*%
%ADD21C,0.030000*%
%LNMASK1*%
G90*
G70*
G54D10*
X666Y1541D03*
X666Y1441D03*
X666Y1341D03*
X666Y1241D03*
X666Y1141D03*
X666Y1041D03*
X666Y941D03*
X666Y841D03*
X666Y741D03*
X666Y641D03*
X666Y541D03*
X666Y441D03*
X666Y341D03*
X666Y241D03*
X666Y141D03*
X1266Y1541D03*
X1266Y1441D03*
X1266Y1341D03*
X1266Y1241D03*
X1266Y1141D03*
X1266Y1041D03*
X1266Y941D03*
X1266Y841D03*
X1266Y741D03*
X1266Y641D03*
X1266Y541D03*
X1266Y441D03*
X1266Y341D03*
X1266Y241D03*
X1266Y141D03*
G54D11*
X366Y387D03*
X367Y99D03*
X515Y262D03*
X366Y387D03*
X367Y99D03*
X515Y262D03*
G54D12*
X566Y499D03*
X266Y499D03*
X566Y599D03*
X266Y599D03*
X566Y699D03*
X266Y699D03*
X566Y799D03*
X266Y799D03*
X566Y899D03*
X266Y899D03*
X566Y999D03*
X266Y999D03*
X566Y1099D03*
X266Y1099D03*
X566Y1199D03*
X266Y1199D03*
X566Y1299D03*
X266Y1299D03*
X1366Y1298D03*
X1666Y1298D03*
X1366Y1198D03*
X1666Y1198D03*
X1366Y1098D03*
X1666Y1098D03*
X1366Y998D03*
X1666Y998D03*
X1366Y898D03*
X1666Y898D03*
X1366Y798D03*
X1666Y798D03*
X1366Y698D03*
X1666Y698D03*
X1366Y598D03*
X1666Y598D03*
X1366Y498D03*
X1666Y498D03*
G54D13*
X1866Y658D03*
X1766Y658D03*
X66Y1158D03*
X166Y1158D03*
X66Y1058D03*
X166Y1058D03*
X1866Y758D03*
X1766Y758D03*
X66Y958D03*
X166Y958D03*
X1866Y858D03*
X1766Y858D03*
X66Y858D03*
X166Y858D03*
X1866Y958D03*
X1766Y958D03*
X66Y758D03*
X166Y758D03*
X1866Y1058D03*
X1766Y1058D03*
X66Y658D03*
X166Y658D03*
X1866Y1158D03*
X1766Y1158D03*
X66Y558D03*
X166Y558D03*
X1866Y1258D03*
X1766Y1258D03*
X66Y1258D03*
X166Y1258D03*
X1866Y558D03*
X1766Y558D03*
G54D14*
X91Y146D03*
X1806Y1873D03*
X139Y1873D03*
X1841Y141D03*
G54D15*
X1278Y1843D03*
X1361Y1843D03*
X1463Y1843D03*
X1546Y1843D03*
X1278Y1745D03*
X1546Y1745D03*
G54D16*
X1412Y1993D03*
G54D15*
X1278Y1843D03*
X1361Y1843D03*
X1463Y1843D03*
X1546Y1843D03*
X1278Y1745D03*
X1546Y1745D03*
G54D16*
X1412Y1993D03*
G54D15*
X402Y1842D03*
X485Y1842D03*
X588Y1842D03*
X670Y1842D03*
X402Y1744D03*
X670Y1744D03*
G54D16*
X536Y1992D03*
G54D15*
X402Y1842D03*
X485Y1842D03*
X588Y1842D03*
X670Y1842D03*
X402Y1744D03*
X670Y1744D03*
G54D16*
X536Y1992D03*
G54D12*
X1629Y1610D03*
X1547Y1552D03*
X410Y1556D03*
X328Y1614D03*
X675Y1630D03*
X347Y1401D03*
X1271Y1630D03*
X1599Y1400D03*
X966Y1058D03*
X966Y1458D03*
X866Y1058D03*
X866Y1458D03*
G54D17*
X1647Y1990D03*
X772Y1994D03*
X1179Y1996D03*
X303Y1999D03*
G54D18*
X1413Y1994D03*
X537Y1993D03*
G54D19*
X666Y1541D03*
G54D20*
X566Y499D03*
X1366Y1298D03*
G54D21*
G36*
X1623Y1571D02*
X1591Y1616D01*
X1636Y1648D01*
X1668Y1603D01*
X1623Y1571D01*
G37*
D02*
G36*
X371Y1550D02*
X403Y1595D01*
X448Y1563D01*
X416Y1518D01*
X371Y1550D01*
G37*
D02*
G04 End of Mask1*
M02*