G04 MADE WITH FRITZING*
G04 WWW.FRITZING.ORG*
G04 DOUBLE SIDED*
G04 HOLES PLATED*
G04 CONTOUR ON CENTER OF CONTOUR VECTOR*
%ASAXBY*%
%FSLAX23Y23*%
%MOIN*%
%OFA0B0*%
%SFA1.0B1.0*%
%ADD10R,1.930780X2.086610X1.914780X2.070610*%
%ADD11C,0.008000*%
%ADD12R,0.001000X0.001000*%
%LNSILK0*%
G90*
G70*
G54D11*
X4Y2083D02*
X1927Y2083D01*
X1927Y4D01*
X4Y4D01*
X4Y2083D01*
D02*
G54D12*
X1148Y1406D02*
X1202Y1406D01*
X1146Y1405D02*
X1204Y1405D01*
X1145Y1404D02*
X1205Y1404D01*
X1144Y1403D02*
X1206Y1403D01*
X1144Y1402D02*
X1206Y1402D01*
X1143Y1401D02*
X1207Y1401D01*
X1143Y1400D02*
X1207Y1400D01*
X1143Y1399D02*
X1207Y1399D01*
X1143Y1398D02*
X1150Y1398D01*
X1200Y1398D02*
X1207Y1398D01*
X1143Y1397D02*
X1150Y1397D01*
X1200Y1397D02*
X1207Y1397D01*
X1143Y1396D02*
X1150Y1396D01*
X1200Y1396D02*
X1207Y1396D01*
X1143Y1395D02*
X1150Y1395D01*
X1200Y1395D02*
X1207Y1395D01*
X1143Y1394D02*
X1150Y1394D01*
X1200Y1394D02*
X1207Y1394D01*
X1143Y1393D02*
X1150Y1393D01*
X1200Y1393D02*
X1207Y1393D01*
X1143Y1392D02*
X1150Y1392D01*
X1200Y1392D02*
X1207Y1392D01*
X1143Y1391D02*
X1150Y1391D01*
X1200Y1391D02*
X1207Y1391D01*
X1143Y1390D02*
X1150Y1390D01*
X1200Y1390D02*
X1207Y1390D01*
X1143Y1389D02*
X1150Y1389D01*
X1200Y1389D02*
X1207Y1389D01*
X1143Y1388D02*
X1150Y1388D01*
X1200Y1388D02*
X1207Y1388D01*
X1143Y1387D02*
X1150Y1387D01*
X1200Y1387D02*
X1207Y1387D01*
X1143Y1386D02*
X1150Y1386D01*
X1200Y1386D02*
X1207Y1386D01*
X1143Y1385D02*
X1150Y1385D01*
X1200Y1385D02*
X1207Y1385D01*
X1143Y1384D02*
X1150Y1384D01*
X1200Y1384D02*
X1207Y1384D01*
X1143Y1383D02*
X1150Y1383D01*
X1200Y1383D02*
X1207Y1383D01*
X1143Y1382D02*
X1150Y1382D01*
X1200Y1382D02*
X1207Y1382D01*
X1143Y1381D02*
X1150Y1381D01*
X1200Y1381D02*
X1207Y1381D01*
X1143Y1380D02*
X1150Y1380D01*
X1200Y1380D02*
X1207Y1380D01*
X1143Y1379D02*
X1150Y1379D01*
X1200Y1379D02*
X1207Y1379D01*
X1143Y1378D02*
X1150Y1378D01*
X1200Y1378D02*
X1207Y1378D01*
X1143Y1377D02*
X1150Y1377D01*
X1200Y1377D02*
X1207Y1377D01*
X1143Y1376D02*
X1150Y1376D01*
X1200Y1376D02*
X1207Y1376D01*
X1143Y1375D02*
X1150Y1375D01*
X1200Y1375D02*
X1207Y1375D01*
X1143Y1374D02*
X1150Y1374D01*
X1200Y1374D02*
X1207Y1374D01*
X1143Y1373D02*
X1207Y1373D01*
X1143Y1372D02*
X1207Y1372D01*
X1143Y1371D02*
X1207Y1371D01*
X1144Y1370D02*
X1206Y1370D01*
X1144Y1369D02*
X1206Y1369D01*
X1145Y1368D02*
X1205Y1368D01*
X1146Y1367D02*
X1204Y1367D01*
X1147Y1366D02*
X1203Y1366D01*
X1151Y1365D02*
X1199Y1365D01*
X1098Y1347D02*
X1101Y1347D01*
X1126Y1347D02*
X1129Y1347D01*
X1096Y1346D02*
X1102Y1346D01*
X1125Y1346D02*
X1131Y1346D01*
X1095Y1345D02*
X1104Y1345D01*
X1125Y1345D02*
X1132Y1345D01*
X1094Y1344D02*
X1105Y1344D01*
X1125Y1344D02*
X1133Y1344D01*
X1094Y1343D02*
X1106Y1343D01*
X1126Y1343D02*
X1133Y1343D01*
X1094Y1342D02*
X1108Y1342D01*
X1128Y1342D02*
X1134Y1342D01*
X1094Y1341D02*
X1098Y1341D01*
X1101Y1341D02*
X1109Y1341D01*
X1129Y1341D02*
X1134Y1341D01*
X1094Y1340D02*
X1098Y1340D01*
X1102Y1340D02*
X1110Y1340D01*
X1130Y1340D02*
X1134Y1340D01*
X1094Y1339D02*
X1098Y1339D01*
X1103Y1339D02*
X1111Y1339D01*
X1130Y1339D02*
X1134Y1339D01*
X1094Y1338D02*
X1098Y1338D01*
X1105Y1338D02*
X1113Y1338D01*
X1130Y1338D02*
X1134Y1338D01*
X1094Y1337D02*
X1098Y1337D01*
X1106Y1337D02*
X1114Y1337D01*
X1130Y1337D02*
X1134Y1337D01*
X1094Y1336D02*
X1098Y1336D01*
X1107Y1336D02*
X1115Y1336D01*
X1130Y1336D02*
X1134Y1336D01*
X1094Y1335D02*
X1098Y1335D01*
X1109Y1335D02*
X1117Y1335D01*
X1130Y1335D02*
X1134Y1335D01*
X1094Y1334D02*
X1098Y1334D01*
X1110Y1334D02*
X1118Y1334D01*
X1130Y1334D02*
X1134Y1334D01*
X1094Y1333D02*
X1098Y1333D01*
X1111Y1333D02*
X1119Y1333D01*
X1130Y1333D02*
X1134Y1333D01*
X1156Y1333D02*
X1165Y1333D01*
X1094Y1332D02*
X1098Y1332D01*
X1112Y1332D02*
X1120Y1332D01*
X1130Y1332D02*
X1134Y1332D01*
X1155Y1332D02*
X1167Y1332D01*
X1094Y1331D02*
X1098Y1331D01*
X1114Y1331D02*
X1122Y1331D01*
X1130Y1331D02*
X1134Y1331D01*
X1154Y1331D02*
X1168Y1331D01*
X1094Y1330D02*
X1098Y1330D01*
X1115Y1330D02*
X1123Y1330D01*
X1130Y1330D02*
X1134Y1330D01*
X1154Y1330D02*
X1168Y1330D01*
X1094Y1329D02*
X1098Y1329D01*
X1116Y1329D02*
X1124Y1329D01*
X1130Y1329D02*
X1134Y1329D01*
X1153Y1329D02*
X1168Y1329D01*
X1094Y1328D02*
X1098Y1328D01*
X1118Y1328D02*
X1125Y1328D01*
X1130Y1328D02*
X1134Y1328D01*
X1153Y1328D02*
X1168Y1328D01*
X1094Y1327D02*
X1098Y1327D01*
X1119Y1327D02*
X1127Y1327D01*
X1130Y1327D02*
X1134Y1327D01*
X1153Y1327D02*
X1168Y1327D01*
X1094Y1326D02*
X1101Y1326D01*
X1120Y1326D02*
X1134Y1326D01*
X1153Y1326D02*
X1168Y1326D01*
X1094Y1325D02*
X1102Y1325D01*
X1122Y1325D02*
X1134Y1325D01*
X1153Y1325D02*
X1168Y1325D01*
X1095Y1324D02*
X1102Y1324D01*
X1123Y1324D02*
X1133Y1324D01*
X1153Y1324D02*
X1168Y1324D01*
X1096Y1323D02*
X1102Y1323D01*
X1124Y1323D02*
X1132Y1323D01*
X1153Y1323D02*
X1168Y1323D01*
X1097Y1322D02*
X1102Y1322D01*
X1126Y1322D02*
X1131Y1322D01*
X1153Y1322D02*
X1168Y1322D01*
X1100Y1321D02*
X1100Y1321D01*
X1129Y1321D02*
X1129Y1321D01*
X1153Y1321D02*
X1168Y1321D01*
X1154Y1320D02*
X1168Y1320D01*
X1154Y1319D02*
X1168Y1319D01*
X1155Y1318D02*
X1167Y1318D01*
X1156Y1317D02*
X1166Y1317D01*
X1095Y1309D02*
X1100Y1309D01*
X1094Y1308D02*
X1117Y1308D01*
X1094Y1307D02*
X1119Y1307D01*
X1094Y1306D02*
X1120Y1306D01*
X1094Y1305D02*
X1121Y1305D01*
X1095Y1304D02*
X1122Y1304D01*
X1096Y1303D02*
X1101Y1303D01*
X1106Y1303D02*
X1111Y1303D01*
X1116Y1303D02*
X1122Y1303D01*
X1095Y1302D02*
X1100Y1302D01*
X1107Y1302D02*
X1111Y1302D01*
X1118Y1302D02*
X1123Y1302D01*
X1095Y1301D02*
X1100Y1301D01*
X1107Y1301D02*
X1111Y1301D01*
X1118Y1301D02*
X1123Y1301D01*
X1094Y1300D02*
X1099Y1300D01*
X1107Y1300D02*
X1111Y1300D01*
X1118Y1300D02*
X1123Y1300D01*
X1094Y1299D02*
X1099Y1299D01*
X1107Y1299D02*
X1111Y1299D01*
X1118Y1299D02*
X1123Y1299D01*
X1094Y1298D02*
X1098Y1298D01*
X1107Y1298D02*
X1111Y1298D01*
X1118Y1298D02*
X1123Y1298D01*
X1094Y1297D02*
X1098Y1297D01*
X1107Y1297D02*
X1111Y1297D01*
X1118Y1297D02*
X1123Y1297D01*
X1094Y1296D02*
X1098Y1296D01*
X1107Y1296D02*
X1111Y1296D01*
X1118Y1296D02*
X1123Y1296D01*
X1094Y1295D02*
X1098Y1295D01*
X1107Y1295D02*
X1111Y1295D01*
X1118Y1295D02*
X1123Y1295D01*
X1094Y1294D02*
X1098Y1294D01*
X1107Y1294D02*
X1111Y1294D01*
X1118Y1294D02*
X1123Y1294D01*
X1094Y1293D02*
X1098Y1293D01*
X1107Y1293D02*
X1111Y1293D01*
X1118Y1293D02*
X1123Y1293D01*
X1094Y1292D02*
X1098Y1292D01*
X1107Y1292D02*
X1111Y1292D01*
X1118Y1292D02*
X1123Y1292D01*
X1094Y1291D02*
X1098Y1291D01*
X1107Y1291D02*
X1111Y1291D01*
X1118Y1291D02*
X1123Y1291D01*
X1094Y1290D02*
X1098Y1290D01*
X1107Y1290D02*
X1111Y1290D01*
X1118Y1290D02*
X1123Y1290D01*
X1094Y1289D02*
X1099Y1289D01*
X1106Y1289D02*
X1111Y1289D01*
X1119Y1289D02*
X1122Y1289D01*
X1094Y1288D02*
X1111Y1288D01*
X1094Y1287D02*
X1110Y1287D01*
X1095Y1286D02*
X1110Y1286D01*
X1096Y1285D02*
X1109Y1285D01*
X1097Y1284D02*
X1108Y1284D01*
X1145Y1284D02*
X1170Y1284D01*
X1100Y1283D02*
X1105Y1283D01*
X1144Y1283D02*
X1171Y1283D01*
X1143Y1282D02*
X1171Y1282D01*
X1143Y1281D02*
X1172Y1281D01*
X1143Y1280D02*
X1172Y1280D01*
X1143Y1279D02*
X1171Y1279D01*
X1143Y1278D02*
X1171Y1278D01*
X1143Y1277D02*
X1170Y1277D01*
X1143Y1276D02*
X1150Y1276D01*
X1143Y1275D02*
X1150Y1275D01*
X1143Y1274D02*
X1150Y1274D01*
X1143Y1273D02*
X1150Y1273D01*
X1143Y1272D02*
X1150Y1272D01*
X1143Y1271D02*
X1150Y1271D01*
X1097Y1270D02*
X1102Y1270D01*
X1126Y1270D02*
X1130Y1270D01*
X1143Y1270D02*
X1150Y1270D01*
X1095Y1269D02*
X1103Y1269D01*
X1125Y1269D02*
X1132Y1269D01*
X1143Y1269D02*
X1150Y1269D01*
X1095Y1268D02*
X1104Y1268D01*
X1125Y1268D02*
X1132Y1268D01*
X1143Y1268D02*
X1207Y1268D01*
X1094Y1267D02*
X1106Y1267D01*
X1125Y1267D02*
X1133Y1267D01*
X1143Y1267D02*
X1207Y1267D01*
X1094Y1266D02*
X1107Y1266D01*
X1126Y1266D02*
X1134Y1266D01*
X1143Y1266D02*
X1207Y1266D01*
X1094Y1265D02*
X1098Y1265D01*
X1100Y1265D02*
X1108Y1265D01*
X1129Y1265D02*
X1134Y1265D01*
X1143Y1265D02*
X1207Y1265D01*
X1094Y1264D02*
X1098Y1264D01*
X1102Y1264D02*
X1110Y1264D01*
X1130Y1264D02*
X1134Y1264D01*
X1143Y1264D02*
X1207Y1264D01*
X1094Y1263D02*
X1098Y1263D01*
X1103Y1263D02*
X1111Y1263D01*
X1130Y1263D02*
X1134Y1263D01*
X1143Y1263D02*
X1207Y1263D01*
X1094Y1262D02*
X1098Y1262D01*
X1104Y1262D02*
X1112Y1262D01*
X1130Y1262D02*
X1134Y1262D01*
X1143Y1262D02*
X1207Y1262D01*
X1094Y1261D02*
X1098Y1261D01*
X1105Y1261D02*
X1113Y1261D01*
X1130Y1261D02*
X1134Y1261D01*
X1143Y1261D02*
X1207Y1261D01*
X1094Y1260D02*
X1098Y1260D01*
X1107Y1260D02*
X1115Y1260D01*
X1130Y1260D02*
X1134Y1260D01*
X1143Y1260D02*
X1207Y1260D01*
X1094Y1259D02*
X1098Y1259D01*
X1108Y1259D02*
X1116Y1259D01*
X1130Y1259D02*
X1134Y1259D01*
X1143Y1259D02*
X1150Y1259D01*
X1200Y1259D02*
X1207Y1259D01*
X1094Y1258D02*
X1098Y1258D01*
X1109Y1258D02*
X1117Y1258D01*
X1130Y1258D02*
X1134Y1258D01*
X1143Y1258D02*
X1150Y1258D01*
X1200Y1258D02*
X1207Y1258D01*
X1094Y1257D02*
X1098Y1257D01*
X1111Y1257D02*
X1119Y1257D01*
X1130Y1257D02*
X1134Y1257D01*
X1143Y1257D02*
X1150Y1257D01*
X1200Y1257D02*
X1207Y1257D01*
X1094Y1256D02*
X1098Y1256D01*
X1112Y1256D02*
X1120Y1256D01*
X1130Y1256D02*
X1134Y1256D01*
X1143Y1256D02*
X1150Y1256D01*
X1200Y1256D02*
X1207Y1256D01*
X1094Y1255D02*
X1098Y1255D01*
X1113Y1255D02*
X1121Y1255D01*
X1130Y1255D02*
X1134Y1255D01*
X1143Y1255D02*
X1150Y1255D01*
X1200Y1255D02*
X1207Y1255D01*
X1094Y1254D02*
X1098Y1254D01*
X1115Y1254D02*
X1122Y1254D01*
X1130Y1254D02*
X1134Y1254D01*
X1143Y1254D02*
X1150Y1254D01*
X1200Y1254D02*
X1207Y1254D01*
X1094Y1253D02*
X1098Y1253D01*
X1116Y1253D02*
X1124Y1253D01*
X1130Y1253D02*
X1134Y1253D01*
X1143Y1253D02*
X1150Y1253D01*
X1200Y1253D02*
X1207Y1253D01*
X1094Y1252D02*
X1098Y1252D01*
X1117Y1252D02*
X1125Y1252D01*
X1130Y1252D02*
X1134Y1252D01*
X1143Y1252D02*
X1150Y1252D01*
X1200Y1252D02*
X1207Y1252D01*
X1094Y1251D02*
X1098Y1251D01*
X1118Y1251D02*
X1126Y1251D01*
X1130Y1251D02*
X1134Y1251D01*
X1143Y1251D02*
X1150Y1251D01*
X1200Y1251D02*
X1207Y1251D01*
X1094Y1250D02*
X1099Y1250D01*
X1120Y1250D02*
X1134Y1250D01*
X1143Y1250D02*
X1150Y1250D01*
X1200Y1250D02*
X1207Y1250D01*
X1094Y1249D02*
X1102Y1249D01*
X1121Y1249D02*
X1134Y1249D01*
X1143Y1249D02*
X1150Y1249D01*
X1200Y1249D02*
X1207Y1249D01*
X1095Y1248D02*
X1102Y1248D01*
X1122Y1248D02*
X1133Y1248D01*
X1143Y1248D02*
X1150Y1248D01*
X1200Y1248D02*
X1207Y1248D01*
X1095Y1247D02*
X1102Y1247D01*
X1124Y1247D02*
X1133Y1247D01*
X1143Y1247D02*
X1150Y1247D01*
X1200Y1247D02*
X1207Y1247D01*
X1096Y1246D02*
X1102Y1246D01*
X1125Y1246D02*
X1132Y1246D01*
X1143Y1246D02*
X1150Y1246D01*
X1200Y1246D02*
X1207Y1246D01*
X1098Y1245D02*
X1101Y1245D01*
X1127Y1245D02*
X1130Y1245D01*
X1144Y1245D02*
X1150Y1245D01*
X1200Y1245D02*
X1206Y1245D01*
X1145Y1244D02*
X1149Y1244D01*
X1201Y1244D02*
X1205Y1244D01*
X1094Y1232D02*
X1097Y1232D01*
X1130Y1232D02*
X1133Y1232D01*
X1094Y1231D02*
X1098Y1231D01*
X1130Y1231D02*
X1134Y1231D01*
X1094Y1230D02*
X1098Y1230D01*
X1130Y1230D02*
X1134Y1230D01*
X1094Y1229D02*
X1098Y1229D01*
X1130Y1229D02*
X1134Y1229D01*
X1094Y1228D02*
X1098Y1228D01*
X1130Y1228D02*
X1134Y1228D01*
X1094Y1227D02*
X1098Y1227D01*
X1130Y1227D02*
X1134Y1227D01*
X1094Y1226D02*
X1098Y1226D01*
X1130Y1226D02*
X1134Y1226D01*
X1094Y1225D02*
X1098Y1225D01*
X1130Y1225D02*
X1134Y1225D01*
X1094Y1224D02*
X1098Y1224D01*
X1130Y1224D02*
X1134Y1224D01*
X1094Y1223D02*
X1098Y1223D01*
X1130Y1223D02*
X1134Y1223D01*
X1145Y1223D02*
X1149Y1223D01*
X1094Y1222D02*
X1134Y1222D01*
X1144Y1222D02*
X1153Y1222D01*
X1094Y1221D02*
X1134Y1221D01*
X1143Y1221D02*
X1156Y1221D01*
X1094Y1220D02*
X1134Y1220D01*
X1143Y1220D02*
X1160Y1220D01*
X1094Y1219D02*
X1134Y1219D01*
X1143Y1219D02*
X1163Y1219D01*
X1094Y1218D02*
X1134Y1218D01*
X1143Y1218D02*
X1167Y1218D01*
X1094Y1217D02*
X1134Y1217D01*
X1144Y1217D02*
X1170Y1217D01*
X1094Y1216D02*
X1098Y1216D01*
X1130Y1216D02*
X1134Y1216D01*
X1145Y1216D02*
X1173Y1216D01*
X1094Y1215D02*
X1098Y1215D01*
X1130Y1215D02*
X1134Y1215D01*
X1148Y1215D02*
X1177Y1215D01*
X1094Y1214D02*
X1098Y1214D01*
X1130Y1214D02*
X1134Y1214D01*
X1151Y1214D02*
X1180Y1214D01*
X1094Y1213D02*
X1098Y1213D01*
X1130Y1213D02*
X1134Y1213D01*
X1155Y1213D02*
X1184Y1213D01*
X1094Y1212D02*
X1098Y1212D01*
X1130Y1212D02*
X1134Y1212D01*
X1157Y1212D02*
X1187Y1212D01*
X1094Y1211D02*
X1098Y1211D01*
X1130Y1211D02*
X1134Y1211D01*
X1157Y1211D02*
X1191Y1211D01*
X1094Y1210D02*
X1098Y1210D01*
X1130Y1210D02*
X1134Y1210D01*
X1157Y1210D02*
X1194Y1210D01*
X1094Y1209D02*
X1098Y1209D01*
X1130Y1209D02*
X1134Y1209D01*
X1157Y1209D02*
X1165Y1209D01*
X1168Y1209D02*
X1197Y1209D01*
X1094Y1208D02*
X1098Y1208D01*
X1130Y1208D02*
X1134Y1208D01*
X1157Y1208D02*
X1165Y1208D01*
X1172Y1208D02*
X1201Y1208D01*
X1095Y1207D02*
X1097Y1207D01*
X1131Y1207D02*
X1133Y1207D01*
X1157Y1207D02*
X1165Y1207D01*
X1175Y1207D02*
X1204Y1207D01*
X1157Y1206D02*
X1165Y1206D01*
X1178Y1206D02*
X1206Y1206D01*
X1157Y1205D02*
X1165Y1205D01*
X1182Y1205D02*
X1207Y1205D01*
X1157Y1204D02*
X1165Y1204D01*
X1185Y1204D02*
X1207Y1204D01*
X1157Y1203D02*
X1165Y1203D01*
X1188Y1203D02*
X1207Y1203D01*
X1157Y1202D02*
X1165Y1202D01*
X1186Y1202D02*
X1207Y1202D01*
X1157Y1201D02*
X1165Y1201D01*
X1182Y1201D02*
X1207Y1201D01*
X1157Y1200D02*
X1165Y1200D01*
X1179Y1200D02*
X1206Y1200D01*
X1157Y1199D02*
X1165Y1199D01*
X1175Y1199D02*
X1204Y1199D01*
X1157Y1198D02*
X1165Y1198D01*
X1172Y1198D02*
X1201Y1198D01*
X1157Y1197D02*
X1165Y1197D01*
X1168Y1197D02*
X1198Y1197D01*
X1157Y1196D02*
X1194Y1196D01*
X1157Y1195D02*
X1191Y1195D01*
X1099Y1194D02*
X1133Y1194D01*
X1157Y1194D02*
X1187Y1194D01*
X1097Y1193D02*
X1134Y1193D01*
X1155Y1193D02*
X1184Y1193D01*
X1096Y1192D02*
X1134Y1192D01*
X1151Y1192D02*
X1181Y1192D01*
X1094Y1191D02*
X1134Y1191D01*
X1148Y1191D02*
X1177Y1191D01*
X1094Y1190D02*
X1133Y1190D01*
X1145Y1190D02*
X1174Y1190D01*
X1094Y1189D02*
X1100Y1189D01*
X1144Y1189D02*
X1170Y1189D01*
X1094Y1188D02*
X1098Y1188D01*
X1143Y1188D02*
X1167Y1188D01*
X1094Y1187D02*
X1098Y1187D01*
X1143Y1187D02*
X1164Y1187D01*
X1094Y1186D02*
X1098Y1186D01*
X1143Y1186D02*
X1160Y1186D01*
X1094Y1185D02*
X1099Y1185D01*
X1143Y1185D02*
X1157Y1185D01*
X1094Y1184D02*
X1101Y1184D01*
X1144Y1184D02*
X1153Y1184D01*
X1094Y1183D02*
X1120Y1183D01*
X1144Y1183D02*
X1150Y1183D01*
X1095Y1182D02*
X1120Y1182D01*
X1095Y1181D02*
X1120Y1181D01*
X1094Y1180D02*
X1120Y1180D01*
X1094Y1179D02*
X1119Y1179D01*
X1094Y1178D02*
X1099Y1178D01*
X1094Y1177D02*
X1098Y1177D01*
X1094Y1176D02*
X1098Y1176D01*
X1094Y1175D02*
X1098Y1175D01*
X1094Y1174D02*
X1100Y1174D01*
X1094Y1173D02*
X1133Y1173D01*
X1094Y1172D02*
X1134Y1172D01*
X1095Y1171D02*
X1134Y1171D01*
X1097Y1170D02*
X1134Y1170D01*
X1098Y1169D02*
X1133Y1169D01*
X1136Y1162D02*
X1140Y1162D01*
X1135Y1161D02*
X1141Y1161D01*
X1135Y1160D02*
X1142Y1160D01*
X1134Y1159D02*
X1142Y1159D01*
X1134Y1158D02*
X1142Y1158D01*
X1134Y1157D02*
X1142Y1157D01*
X1100Y1156D02*
X1103Y1156D01*
X1134Y1156D02*
X1142Y1156D01*
X1097Y1155D02*
X1105Y1155D01*
X1117Y1155D02*
X1120Y1155D01*
X1134Y1155D02*
X1142Y1155D01*
X1096Y1154D02*
X1106Y1154D01*
X1116Y1154D02*
X1121Y1154D01*
X1134Y1154D02*
X1142Y1154D01*
X1095Y1153D02*
X1107Y1153D01*
X1116Y1153D02*
X1121Y1153D01*
X1134Y1153D02*
X1142Y1153D01*
X1095Y1152D02*
X1108Y1152D01*
X1116Y1152D02*
X1122Y1152D01*
X1134Y1152D02*
X1142Y1152D01*
X1094Y1151D02*
X1108Y1151D01*
X1117Y1151D02*
X1122Y1151D01*
X1134Y1151D02*
X1142Y1151D01*
X1094Y1150D02*
X1099Y1150D01*
X1104Y1150D02*
X1109Y1150D01*
X1118Y1150D02*
X1123Y1150D01*
X1134Y1150D02*
X1142Y1150D01*
X1094Y1149D02*
X1098Y1149D01*
X1104Y1149D02*
X1109Y1149D01*
X1118Y1149D02*
X1123Y1149D01*
X1134Y1149D02*
X1142Y1149D01*
X1094Y1148D02*
X1098Y1148D01*
X1105Y1148D02*
X1110Y1148D01*
X1118Y1148D02*
X1123Y1148D01*
X1134Y1148D02*
X1142Y1148D01*
X1094Y1147D02*
X1098Y1147D01*
X1105Y1147D02*
X1110Y1147D01*
X1118Y1147D02*
X1123Y1147D01*
X1134Y1147D02*
X1142Y1147D01*
X1094Y1146D02*
X1098Y1146D01*
X1106Y1146D02*
X1110Y1146D01*
X1118Y1146D02*
X1123Y1146D01*
X1134Y1146D02*
X1142Y1146D01*
X1094Y1145D02*
X1098Y1145D01*
X1106Y1145D02*
X1111Y1145D01*
X1118Y1145D02*
X1123Y1145D01*
X1134Y1145D02*
X1142Y1145D01*
X1094Y1144D02*
X1098Y1144D01*
X1107Y1144D02*
X1111Y1144D01*
X1118Y1144D02*
X1123Y1144D01*
X1134Y1144D02*
X1142Y1144D01*
X1094Y1143D02*
X1098Y1143D01*
X1107Y1143D02*
X1112Y1143D01*
X1118Y1143D02*
X1123Y1143D01*
X1134Y1143D02*
X1142Y1143D01*
X1094Y1142D02*
X1098Y1142D01*
X1107Y1142D02*
X1112Y1142D01*
X1118Y1142D02*
X1123Y1142D01*
X1134Y1142D02*
X1142Y1142D01*
X1094Y1141D02*
X1098Y1141D01*
X1108Y1141D02*
X1113Y1141D01*
X1118Y1141D02*
X1123Y1141D01*
X1134Y1141D02*
X1142Y1141D01*
X1094Y1140D02*
X1098Y1140D01*
X1108Y1140D02*
X1113Y1140D01*
X1118Y1140D02*
X1123Y1140D01*
X1134Y1140D02*
X1142Y1140D01*
X1094Y1139D02*
X1098Y1139D01*
X1109Y1139D02*
X1113Y1139D01*
X1118Y1139D02*
X1123Y1139D01*
X1134Y1139D02*
X1142Y1139D01*
X1094Y1138D02*
X1098Y1138D01*
X1109Y1138D02*
X1114Y1138D01*
X1118Y1138D02*
X1123Y1138D01*
X1134Y1138D02*
X1142Y1138D01*
X1094Y1137D02*
X1098Y1137D01*
X1110Y1137D02*
X1114Y1137D01*
X1118Y1137D02*
X1123Y1137D01*
X1134Y1137D02*
X1142Y1137D01*
X1094Y1136D02*
X1098Y1136D01*
X1110Y1136D02*
X1115Y1136D01*
X1117Y1136D02*
X1123Y1136D01*
X1134Y1136D02*
X1142Y1136D01*
X1094Y1135D02*
X1099Y1135D01*
X1110Y1135D02*
X1122Y1135D01*
X1134Y1135D02*
X1142Y1135D01*
X1094Y1134D02*
X1100Y1134D01*
X1111Y1134D02*
X1122Y1134D01*
X1134Y1134D02*
X1142Y1134D01*
X1095Y1133D02*
X1100Y1133D01*
X1112Y1133D02*
X1121Y1133D01*
X1134Y1133D02*
X1142Y1133D01*
X1096Y1132D02*
X1100Y1132D01*
X1113Y1132D02*
X1120Y1132D01*
X1134Y1132D02*
X1142Y1132D01*
X1096Y1131D02*
X1100Y1131D01*
X1115Y1131D02*
X1118Y1131D01*
X1134Y1131D02*
X1142Y1131D01*
X1098Y1130D02*
X1098Y1130D01*
X1134Y1130D02*
X1142Y1130D01*
X1134Y1129D02*
X1142Y1129D01*
X1134Y1128D02*
X1142Y1128D01*
X1134Y1127D02*
X1142Y1127D01*
X1134Y1126D02*
X1142Y1126D01*
X1134Y1125D02*
X1142Y1125D01*
X1135Y1124D02*
X1142Y1124D01*
X1135Y1123D02*
X1141Y1123D01*
X1136Y1122D02*
X1140Y1122D01*
X1096Y1118D02*
X1096Y1118D01*
X1132Y1118D02*
X1132Y1118D01*
X1094Y1117D02*
X1097Y1117D01*
X1130Y1117D02*
X1133Y1117D01*
X1094Y1116D02*
X1098Y1116D01*
X1130Y1116D02*
X1134Y1116D01*
X1094Y1115D02*
X1098Y1115D01*
X1130Y1115D02*
X1134Y1115D01*
X1094Y1114D02*
X1098Y1114D01*
X1130Y1114D02*
X1134Y1114D01*
X1094Y1113D02*
X1098Y1113D01*
X1130Y1113D02*
X1134Y1113D01*
X1094Y1112D02*
X1098Y1112D01*
X1130Y1112D02*
X1134Y1112D01*
X1094Y1111D02*
X1098Y1111D01*
X1130Y1111D02*
X1134Y1111D01*
X1094Y1110D02*
X1098Y1110D01*
X1130Y1110D02*
X1134Y1110D01*
X1094Y1109D02*
X1098Y1109D01*
X1130Y1109D02*
X1134Y1109D01*
X1094Y1108D02*
X1098Y1108D01*
X1130Y1108D02*
X1134Y1108D01*
X1094Y1107D02*
X1134Y1107D01*
X1094Y1106D02*
X1134Y1106D01*
X1094Y1105D02*
X1134Y1105D01*
X1094Y1104D02*
X1134Y1104D01*
X1094Y1103D02*
X1134Y1103D01*
X1094Y1102D02*
X1098Y1102D01*
X1129Y1102D02*
X1134Y1102D01*
X1094Y1101D02*
X1098Y1101D01*
X1130Y1101D02*
X1134Y1101D01*
X1173Y1101D02*
X1182Y1101D01*
X1094Y1100D02*
X1098Y1100D01*
X1130Y1100D02*
X1134Y1100D01*
X1172Y1100D02*
X1183Y1100D01*
X1094Y1099D02*
X1098Y1099D01*
X1130Y1099D02*
X1134Y1099D01*
X1172Y1099D02*
X1185Y1099D01*
X1094Y1098D02*
X1098Y1098D01*
X1130Y1098D02*
X1134Y1098D01*
X1171Y1098D02*
X1186Y1098D01*
X1094Y1097D02*
X1098Y1097D01*
X1130Y1097D02*
X1134Y1097D01*
X1171Y1097D02*
X1187Y1097D01*
X1094Y1096D02*
X1098Y1096D01*
X1130Y1096D02*
X1134Y1096D01*
X1172Y1096D02*
X1187Y1096D01*
X1094Y1095D02*
X1098Y1095D01*
X1130Y1095D02*
X1134Y1095D01*
X1172Y1095D02*
X1188Y1095D01*
X1094Y1094D02*
X1098Y1094D01*
X1130Y1094D02*
X1134Y1094D01*
X1174Y1094D02*
X1189Y1094D01*
X1094Y1093D02*
X1097Y1093D01*
X1130Y1093D02*
X1134Y1093D01*
X1180Y1093D02*
X1189Y1093D01*
X1095Y1092D02*
X1096Y1092D01*
X1131Y1092D02*
X1132Y1092D01*
X1181Y1092D02*
X1189Y1092D01*
X1182Y1091D02*
X1189Y1091D01*
X1182Y1090D02*
X1189Y1090D01*
X1182Y1089D02*
X1189Y1089D01*
X1182Y1088D02*
X1189Y1088D01*
X1182Y1087D02*
X1189Y1087D01*
X1182Y1086D02*
X1189Y1086D01*
X1182Y1085D02*
X1189Y1085D01*
X1182Y1084D02*
X1189Y1084D01*
X1182Y1083D02*
X1189Y1083D01*
X1181Y1082D02*
X1189Y1082D01*
X1181Y1081D02*
X1189Y1081D01*
X1180Y1080D02*
X1189Y1080D01*
X1130Y1079D02*
X1133Y1079D01*
X1179Y1079D02*
X1189Y1079D01*
X1128Y1078D02*
X1134Y1078D01*
X1178Y1078D02*
X1188Y1078D01*
X1127Y1077D02*
X1134Y1077D01*
X1177Y1077D02*
X1187Y1077D01*
X1125Y1076D02*
X1134Y1076D01*
X1176Y1076D02*
X1186Y1076D01*
X1123Y1075D02*
X1133Y1075D01*
X1175Y1075D02*
X1186Y1075D01*
X1121Y1074D02*
X1131Y1074D01*
X1175Y1074D02*
X1185Y1074D01*
X1120Y1073D02*
X1129Y1073D01*
X1174Y1073D02*
X1184Y1073D01*
X1118Y1072D02*
X1128Y1072D01*
X1173Y1072D02*
X1183Y1072D01*
X1116Y1071D02*
X1126Y1071D01*
X1172Y1071D02*
X1182Y1071D01*
X1115Y1070D02*
X1124Y1070D01*
X1171Y1070D02*
X1181Y1070D01*
X1113Y1069D02*
X1123Y1069D01*
X1170Y1069D02*
X1181Y1069D01*
X1111Y1068D02*
X1121Y1068D01*
X1145Y1068D02*
X1187Y1068D01*
X1109Y1067D02*
X1119Y1067D01*
X1144Y1067D02*
X1188Y1067D01*
X1108Y1066D02*
X1117Y1066D01*
X1143Y1066D02*
X1189Y1066D01*
X1106Y1065D02*
X1116Y1065D01*
X1143Y1065D02*
X1189Y1065D01*
X1104Y1064D02*
X1114Y1064D01*
X1143Y1064D02*
X1189Y1064D01*
X1103Y1063D02*
X1112Y1063D01*
X1143Y1063D02*
X1189Y1063D01*
X1101Y1062D02*
X1111Y1062D01*
X1144Y1062D02*
X1189Y1062D01*
X1099Y1061D02*
X1109Y1061D01*
X1145Y1061D02*
X1187Y1061D01*
X1097Y1060D02*
X1107Y1060D01*
X1096Y1059D02*
X1105Y1059D01*
X1094Y1058D02*
X1104Y1058D01*
X1094Y1057D02*
X1102Y1057D01*
X1094Y1056D02*
X1100Y1056D01*
X1094Y1055D02*
X1099Y1055D01*
X1095Y1054D02*
X1097Y1054D01*
X1113Y1041D02*
X1118Y1041D01*
X1165Y1041D02*
X1175Y1041D01*
X1112Y1040D02*
X1119Y1040D01*
X1144Y1040D02*
X1149Y1040D01*
X1162Y1040D02*
X1179Y1040D01*
X1112Y1039D02*
X1121Y1039D01*
X1144Y1039D02*
X1150Y1039D01*
X1161Y1039D02*
X1181Y1039D01*
X1112Y1038D02*
X1121Y1038D01*
X1143Y1038D02*
X1150Y1038D01*
X1161Y1038D02*
X1182Y1038D01*
X1113Y1037D02*
X1122Y1037D01*
X1143Y1037D02*
X1150Y1037D01*
X1161Y1037D02*
X1183Y1037D01*
X1117Y1036D02*
X1122Y1036D01*
X1143Y1036D02*
X1150Y1036D01*
X1161Y1036D02*
X1184Y1036D01*
X1118Y1035D02*
X1123Y1035D01*
X1143Y1035D02*
X1150Y1035D01*
X1161Y1035D02*
X1185Y1035D01*
X1118Y1034D02*
X1123Y1034D01*
X1143Y1034D02*
X1150Y1034D01*
X1161Y1034D02*
X1186Y1034D01*
X1118Y1033D02*
X1123Y1033D01*
X1143Y1033D02*
X1150Y1033D01*
X1161Y1033D02*
X1187Y1033D01*
X1118Y1032D02*
X1123Y1032D01*
X1143Y1032D02*
X1150Y1032D01*
X1161Y1032D02*
X1168Y1032D01*
X1177Y1032D02*
X1187Y1032D01*
X1118Y1031D02*
X1123Y1031D01*
X1143Y1031D02*
X1150Y1031D01*
X1161Y1031D02*
X1168Y1031D01*
X1179Y1031D02*
X1188Y1031D01*
X1118Y1030D02*
X1123Y1030D01*
X1143Y1030D02*
X1150Y1030D01*
X1161Y1030D02*
X1168Y1030D01*
X1180Y1030D02*
X1189Y1030D01*
X1118Y1029D02*
X1123Y1029D01*
X1143Y1029D02*
X1150Y1029D01*
X1161Y1029D02*
X1168Y1029D01*
X1180Y1029D02*
X1189Y1029D01*
X1117Y1028D02*
X1123Y1028D01*
X1143Y1028D02*
X1150Y1028D01*
X1161Y1028D02*
X1168Y1028D01*
X1181Y1028D02*
X1189Y1028D01*
X1116Y1027D02*
X1122Y1027D01*
X1143Y1027D02*
X1150Y1027D01*
X1161Y1027D02*
X1168Y1027D01*
X1182Y1027D02*
X1189Y1027D01*
X1115Y1026D02*
X1121Y1026D01*
X1143Y1026D02*
X1150Y1026D01*
X1161Y1026D02*
X1168Y1026D01*
X1182Y1026D02*
X1189Y1026D01*
X1114Y1025D02*
X1121Y1025D01*
X1143Y1025D02*
X1150Y1025D01*
X1161Y1025D02*
X1168Y1025D01*
X1182Y1025D02*
X1189Y1025D01*
X1114Y1024D02*
X1120Y1024D01*
X1143Y1024D02*
X1150Y1024D01*
X1161Y1024D02*
X1168Y1024D01*
X1182Y1024D02*
X1189Y1024D01*
X1113Y1023D02*
X1119Y1023D01*
X1143Y1023D02*
X1150Y1023D01*
X1161Y1023D02*
X1168Y1023D01*
X1182Y1023D02*
X1189Y1023D01*
X1112Y1022D02*
X1118Y1022D01*
X1143Y1022D02*
X1150Y1022D01*
X1161Y1022D02*
X1168Y1022D01*
X1182Y1022D02*
X1189Y1022D01*
X1111Y1021D02*
X1117Y1021D01*
X1143Y1021D02*
X1150Y1021D01*
X1161Y1021D02*
X1168Y1021D01*
X1182Y1021D02*
X1189Y1021D01*
X1095Y1020D02*
X1122Y1020D01*
X1143Y1020D02*
X1150Y1020D01*
X1161Y1020D02*
X1168Y1020D01*
X1182Y1020D02*
X1189Y1020D01*
X1094Y1019D02*
X1122Y1019D01*
X1143Y1019D02*
X1150Y1019D01*
X1161Y1019D02*
X1168Y1019D01*
X1182Y1019D02*
X1189Y1019D01*
X1094Y1018D02*
X1123Y1018D01*
X1143Y1018D02*
X1150Y1018D01*
X1161Y1018D02*
X1168Y1018D01*
X1182Y1018D02*
X1189Y1018D01*
X1094Y1017D02*
X1122Y1017D01*
X1143Y1017D02*
X1150Y1017D01*
X1161Y1017D02*
X1168Y1017D01*
X1182Y1017D02*
X1189Y1017D01*
X1094Y1016D02*
X1122Y1016D01*
X1143Y1016D02*
X1150Y1016D01*
X1161Y1016D02*
X1168Y1016D01*
X1182Y1016D02*
X1189Y1016D01*
X1143Y1015D02*
X1150Y1015D01*
X1161Y1015D02*
X1168Y1015D01*
X1182Y1015D02*
X1189Y1015D01*
X1143Y1014D02*
X1150Y1014D01*
X1161Y1014D02*
X1168Y1014D01*
X1182Y1014D02*
X1189Y1014D01*
X1143Y1013D02*
X1151Y1013D01*
X1161Y1013D02*
X1168Y1013D01*
X1182Y1013D02*
X1189Y1013D01*
X1143Y1012D02*
X1151Y1012D01*
X1161Y1012D02*
X1168Y1012D01*
X1181Y1012D02*
X1189Y1012D01*
X1143Y1011D02*
X1152Y1011D01*
X1161Y1011D02*
X1168Y1011D01*
X1180Y1011D02*
X1189Y1011D01*
X1144Y1010D02*
X1153Y1010D01*
X1161Y1010D02*
X1168Y1010D01*
X1179Y1010D02*
X1188Y1010D01*
X1144Y1009D02*
X1154Y1009D01*
X1161Y1009D02*
X1168Y1009D01*
X1178Y1009D02*
X1188Y1009D01*
X1145Y1008D02*
X1156Y1008D01*
X1160Y1008D02*
X1168Y1008D01*
X1176Y1008D02*
X1187Y1008D01*
X1146Y1007D02*
X1187Y1007D01*
X1146Y1006D02*
X1186Y1006D01*
X1147Y1005D02*
X1185Y1005D01*
X1148Y1004D02*
X1184Y1004D01*
X1095Y1003D02*
X1097Y1003D01*
X1106Y1003D02*
X1116Y1003D01*
X1149Y1003D02*
X1183Y1003D01*
X1094Y1002D02*
X1098Y1002D01*
X1105Y1002D02*
X1118Y1002D01*
X1150Y1002D02*
X1182Y1002D01*
X1094Y1001D02*
X1098Y1001D01*
X1105Y1001D02*
X1119Y1001D01*
X1152Y1001D02*
X1180Y1001D01*
X1094Y1000D02*
X1098Y1000D01*
X1105Y1000D02*
X1120Y1000D01*
X1154Y1000D02*
X1178Y1000D01*
X1094Y999D02*
X1098Y999D01*
X1105Y999D02*
X1121Y999D01*
X1094Y998D02*
X1098Y998D01*
X1105Y998D02*
X1109Y998D01*
X1114Y998D02*
X1121Y998D01*
X1094Y997D02*
X1098Y997D01*
X1105Y997D02*
X1109Y997D01*
X1116Y997D02*
X1122Y997D01*
X1094Y996D02*
X1098Y996D01*
X1105Y996D02*
X1109Y996D01*
X1117Y996D02*
X1122Y996D01*
X1094Y995D02*
X1098Y995D01*
X1105Y995D02*
X1109Y995D01*
X1118Y995D02*
X1123Y995D01*
X1094Y994D02*
X1098Y994D01*
X1105Y994D02*
X1109Y994D01*
X1118Y994D02*
X1123Y994D01*
X1094Y993D02*
X1098Y993D01*
X1105Y993D02*
X1109Y993D01*
X1118Y993D02*
X1123Y993D01*
X1094Y992D02*
X1098Y992D01*
X1105Y992D02*
X1109Y992D01*
X1118Y992D02*
X1123Y992D01*
X1094Y991D02*
X1098Y991D01*
X1105Y991D02*
X1109Y991D01*
X1118Y991D02*
X1123Y991D01*
X1094Y990D02*
X1098Y990D01*
X1105Y990D02*
X1109Y990D01*
X1118Y990D02*
X1123Y990D01*
X1094Y989D02*
X1098Y989D01*
X1105Y989D02*
X1109Y989D01*
X1118Y989D02*
X1123Y989D01*
X1094Y988D02*
X1098Y988D01*
X1105Y988D02*
X1109Y988D01*
X1118Y988D02*
X1123Y988D01*
X1094Y987D02*
X1098Y987D01*
X1105Y987D02*
X1109Y987D01*
X1118Y987D02*
X1123Y987D01*
X1094Y986D02*
X1098Y986D01*
X1105Y986D02*
X1109Y986D01*
X1118Y986D02*
X1123Y986D01*
X1094Y985D02*
X1099Y985D01*
X1105Y985D02*
X1109Y985D01*
X1118Y985D02*
X1122Y985D01*
X1094Y984D02*
X1099Y984D01*
X1105Y984D02*
X1109Y984D01*
X1117Y984D02*
X1122Y984D01*
X1095Y983D02*
X1101Y983D01*
X1105Y983D02*
X1109Y983D01*
X1116Y983D02*
X1122Y983D01*
X1095Y982D02*
X1121Y982D01*
X1096Y981D02*
X1120Y981D01*
X1097Y980D02*
X1119Y980D01*
X1098Y979D02*
X1118Y979D01*
X1099Y978D02*
X1117Y978D01*
X1145Y975D02*
X1149Y975D01*
X1144Y974D02*
X1149Y974D01*
X1143Y973D02*
X1150Y973D01*
X1143Y972D02*
X1150Y972D01*
X1143Y971D02*
X1150Y971D01*
X1143Y970D02*
X1150Y970D01*
X1143Y969D02*
X1150Y969D01*
X1143Y968D02*
X1150Y968D01*
X1143Y967D02*
X1150Y967D01*
X1143Y966D02*
X1150Y966D01*
X1090Y965D02*
X1121Y965D01*
X1143Y965D02*
X1150Y965D01*
X1088Y964D02*
X1122Y964D01*
X1143Y964D02*
X1150Y964D01*
X1087Y963D02*
X1123Y963D01*
X1143Y963D02*
X1205Y963D01*
X1086Y962D02*
X1123Y962D01*
X1143Y962D02*
X1206Y962D01*
X1085Y961D02*
X1122Y961D01*
X1143Y961D02*
X1207Y961D01*
X1084Y960D02*
X1121Y960D01*
X1143Y960D02*
X1207Y960D01*
X1083Y959D02*
X1089Y959D01*
X1099Y959D02*
X1105Y959D01*
X1114Y959D02*
X1120Y959D01*
X1143Y959D02*
X1207Y959D01*
X1083Y958D02*
X1088Y958D01*
X1098Y958D02*
X1104Y958D01*
X1115Y958D02*
X1121Y958D01*
X1143Y958D02*
X1207Y958D01*
X1082Y957D02*
X1087Y957D01*
X1097Y957D02*
X1103Y957D01*
X1115Y957D02*
X1121Y957D01*
X1143Y957D02*
X1207Y957D01*
X1082Y956D02*
X1087Y956D01*
X1097Y956D02*
X1102Y956D01*
X1116Y956D02*
X1122Y956D01*
X1143Y956D02*
X1207Y956D01*
X1082Y955D02*
X1087Y955D01*
X1096Y955D02*
X1101Y955D01*
X1117Y955D02*
X1122Y955D01*
X1143Y955D02*
X1207Y955D01*
X1082Y954D02*
X1087Y954D01*
X1096Y954D02*
X1101Y954D01*
X1118Y954D02*
X1123Y954D01*
X1143Y954D02*
X1150Y954D01*
X1200Y954D02*
X1207Y954D01*
X1082Y953D02*
X1087Y953D01*
X1096Y953D02*
X1100Y953D01*
X1118Y953D02*
X1123Y953D01*
X1143Y953D02*
X1150Y953D01*
X1200Y953D02*
X1207Y953D01*
X1082Y952D02*
X1087Y952D01*
X1096Y952D02*
X1100Y952D01*
X1118Y952D02*
X1123Y952D01*
X1143Y952D02*
X1150Y952D01*
X1200Y952D02*
X1207Y952D01*
X1082Y951D02*
X1087Y951D01*
X1096Y951D02*
X1100Y951D01*
X1118Y951D02*
X1123Y951D01*
X1143Y951D02*
X1150Y951D01*
X1200Y951D02*
X1207Y951D01*
X1082Y950D02*
X1087Y950D01*
X1096Y950D02*
X1100Y950D01*
X1118Y950D02*
X1123Y950D01*
X1143Y950D02*
X1150Y950D01*
X1200Y950D02*
X1207Y950D01*
X1082Y949D02*
X1087Y949D01*
X1096Y949D02*
X1100Y949D01*
X1118Y949D02*
X1123Y949D01*
X1143Y949D02*
X1150Y949D01*
X1200Y949D02*
X1207Y949D01*
X1082Y948D02*
X1087Y948D01*
X1096Y948D02*
X1100Y948D01*
X1118Y948D02*
X1123Y948D01*
X1143Y948D02*
X1150Y948D01*
X1200Y948D02*
X1207Y948D01*
X1082Y947D02*
X1087Y947D01*
X1096Y947D02*
X1101Y947D01*
X1118Y947D02*
X1122Y947D01*
X1143Y947D02*
X1150Y947D01*
X1200Y947D02*
X1207Y947D01*
X1082Y946D02*
X1087Y946D01*
X1096Y946D02*
X1101Y946D01*
X1117Y946D02*
X1122Y946D01*
X1143Y946D02*
X1150Y946D01*
X1200Y946D02*
X1207Y946D01*
X1082Y945D02*
X1087Y945D01*
X1097Y945D02*
X1102Y945D01*
X1116Y945D02*
X1122Y945D01*
X1143Y945D02*
X1150Y945D01*
X1200Y945D02*
X1207Y945D01*
X1082Y944D02*
X1087Y944D01*
X1097Y944D02*
X1121Y944D01*
X1144Y944D02*
X1149Y944D01*
X1201Y944D02*
X1206Y944D01*
X1083Y943D02*
X1086Y943D01*
X1098Y943D02*
X1120Y943D01*
X1145Y943D02*
X1148Y943D01*
X1202Y943D02*
X1205Y943D01*
X1083Y942D02*
X1086Y942D01*
X1099Y942D02*
X1119Y942D01*
X1100Y941D02*
X1119Y941D01*
X1101Y940D02*
X1117Y940D01*
X1104Y939D02*
X1115Y939D01*
X1107Y927D02*
X1113Y927D01*
X1094Y926D02*
X1097Y926D01*
X1105Y926D02*
X1117Y926D01*
X1094Y925D02*
X1098Y925D01*
X1105Y925D02*
X1118Y925D01*
X1094Y924D02*
X1098Y924D01*
X1105Y924D02*
X1119Y924D01*
X1094Y923D02*
X1098Y923D01*
X1105Y923D02*
X1120Y923D01*
X1094Y922D02*
X1098Y922D01*
X1105Y922D02*
X1121Y922D01*
X1094Y921D02*
X1098Y921D01*
X1105Y921D02*
X1109Y921D01*
X1116Y921D02*
X1122Y921D01*
X1094Y920D02*
X1098Y920D01*
X1105Y920D02*
X1109Y920D01*
X1117Y920D02*
X1122Y920D01*
X1094Y919D02*
X1098Y919D01*
X1105Y919D02*
X1109Y919D01*
X1118Y919D02*
X1122Y919D01*
X1094Y918D02*
X1098Y918D01*
X1105Y918D02*
X1109Y918D01*
X1118Y918D02*
X1123Y918D01*
X1094Y917D02*
X1098Y917D01*
X1105Y917D02*
X1109Y917D01*
X1118Y917D02*
X1123Y917D01*
X1094Y916D02*
X1098Y916D01*
X1105Y916D02*
X1109Y916D01*
X1118Y916D02*
X1123Y916D01*
X1094Y915D02*
X1098Y915D01*
X1105Y915D02*
X1109Y915D01*
X1118Y915D02*
X1123Y915D01*
X1094Y914D02*
X1098Y914D01*
X1105Y914D02*
X1109Y914D01*
X1118Y914D02*
X1123Y914D01*
X1145Y914D02*
X1149Y914D01*
X1094Y913D02*
X1098Y913D01*
X1105Y913D02*
X1109Y913D01*
X1118Y913D02*
X1123Y913D01*
X1144Y913D02*
X1149Y913D01*
X1094Y912D02*
X1098Y912D01*
X1105Y912D02*
X1109Y912D01*
X1118Y912D02*
X1123Y912D01*
X1143Y912D02*
X1150Y912D01*
X1094Y911D02*
X1098Y911D01*
X1105Y911D02*
X1109Y911D01*
X1118Y911D02*
X1123Y911D01*
X1143Y911D02*
X1150Y911D01*
X1094Y910D02*
X1098Y910D01*
X1105Y910D02*
X1109Y910D01*
X1118Y910D02*
X1123Y910D01*
X1143Y910D02*
X1150Y910D01*
X1094Y909D02*
X1098Y909D01*
X1105Y909D02*
X1109Y909D01*
X1118Y909D02*
X1123Y909D01*
X1143Y909D02*
X1150Y909D01*
X1094Y908D02*
X1099Y908D01*
X1105Y908D02*
X1109Y908D01*
X1117Y908D02*
X1122Y908D01*
X1143Y908D02*
X1150Y908D01*
X1094Y907D02*
X1100Y907D01*
X1105Y907D02*
X1109Y907D01*
X1116Y907D02*
X1122Y907D01*
X1143Y907D02*
X1150Y907D01*
X1095Y906D02*
X1102Y906D01*
X1104Y906D02*
X1110Y906D01*
X1114Y906D02*
X1121Y906D01*
X1143Y906D02*
X1150Y906D01*
X1096Y905D02*
X1120Y905D01*
X1143Y905D02*
X1150Y905D01*
X1096Y904D02*
X1120Y904D01*
X1143Y904D02*
X1150Y904D01*
X1097Y903D02*
X1119Y903D01*
X1143Y903D02*
X1150Y903D01*
X1099Y902D02*
X1117Y902D01*
X1143Y902D02*
X1205Y902D01*
X1101Y901D02*
X1115Y901D01*
X1143Y901D02*
X1206Y901D01*
X1143Y900D02*
X1207Y900D01*
X1143Y899D02*
X1207Y899D01*
X1143Y898D02*
X1207Y898D01*
X1143Y897D02*
X1207Y897D01*
X1143Y896D02*
X1207Y896D01*
X1143Y895D02*
X1207Y895D01*
X1143Y894D02*
X1207Y894D01*
X1143Y893D02*
X1150Y893D01*
X1200Y893D02*
X1207Y893D01*
X1143Y892D02*
X1150Y892D01*
X1200Y892D02*
X1207Y892D01*
X1143Y891D02*
X1150Y891D01*
X1200Y891D02*
X1207Y891D01*
X1143Y890D02*
X1150Y890D01*
X1200Y890D02*
X1207Y890D01*
X1143Y889D02*
X1150Y889D01*
X1200Y889D02*
X1207Y889D01*
X1094Y888D02*
X1097Y888D01*
X1106Y888D02*
X1117Y888D01*
X1143Y888D02*
X1150Y888D01*
X1200Y888D02*
X1207Y888D01*
X1094Y887D02*
X1098Y887D01*
X1105Y887D02*
X1118Y887D01*
X1143Y887D02*
X1150Y887D01*
X1200Y887D02*
X1207Y887D01*
X1094Y886D02*
X1098Y886D01*
X1105Y886D02*
X1119Y886D01*
X1143Y886D02*
X1150Y886D01*
X1200Y886D02*
X1207Y886D01*
X1094Y885D02*
X1098Y885D01*
X1105Y885D02*
X1120Y885D01*
X1143Y885D02*
X1150Y885D01*
X1200Y885D02*
X1207Y885D01*
X1094Y884D02*
X1098Y884D01*
X1105Y884D02*
X1121Y884D01*
X1143Y884D02*
X1150Y884D01*
X1200Y884D02*
X1207Y884D01*
X1094Y883D02*
X1098Y883D01*
X1105Y883D02*
X1109Y883D01*
X1115Y883D02*
X1122Y883D01*
X1144Y883D02*
X1149Y883D01*
X1201Y883D02*
X1206Y883D01*
X1094Y882D02*
X1098Y882D01*
X1105Y882D02*
X1109Y882D01*
X1117Y882D02*
X1122Y882D01*
X1145Y882D02*
X1148Y882D01*
X1202Y882D02*
X1205Y882D01*
X1094Y881D02*
X1098Y881D01*
X1105Y881D02*
X1109Y881D01*
X1117Y881D02*
X1122Y881D01*
X1094Y880D02*
X1098Y880D01*
X1105Y880D02*
X1109Y880D01*
X1118Y880D02*
X1123Y880D01*
X1094Y879D02*
X1098Y879D01*
X1105Y879D02*
X1109Y879D01*
X1118Y879D02*
X1123Y879D01*
X1094Y878D02*
X1098Y878D01*
X1105Y878D02*
X1109Y878D01*
X1118Y878D02*
X1123Y878D01*
X1094Y877D02*
X1098Y877D01*
X1105Y877D02*
X1109Y877D01*
X1118Y877D02*
X1123Y877D01*
X1094Y876D02*
X1098Y876D01*
X1105Y876D02*
X1109Y876D01*
X1118Y876D02*
X1123Y876D01*
X1094Y875D02*
X1098Y875D01*
X1105Y875D02*
X1109Y875D01*
X1118Y875D02*
X1123Y875D01*
X1094Y874D02*
X1098Y874D01*
X1105Y874D02*
X1109Y874D01*
X1118Y874D02*
X1123Y874D01*
X1094Y873D02*
X1098Y873D01*
X1105Y873D02*
X1109Y873D01*
X1118Y873D02*
X1123Y873D01*
X1094Y872D02*
X1098Y872D01*
X1105Y872D02*
X1109Y872D01*
X1118Y872D02*
X1123Y872D01*
X1094Y871D02*
X1098Y871D01*
X1105Y871D02*
X1109Y871D01*
X1118Y871D02*
X1123Y871D01*
X1094Y870D02*
X1099Y870D01*
X1105Y870D02*
X1109Y870D01*
X1117Y870D02*
X1122Y870D01*
X1094Y869D02*
X1100Y869D01*
X1105Y869D02*
X1109Y869D01*
X1116Y869D02*
X1122Y869D01*
X1095Y868D02*
X1101Y868D01*
X1105Y868D02*
X1109Y868D01*
X1115Y868D02*
X1121Y868D01*
X1095Y867D02*
X1121Y867D01*
X1096Y866D02*
X1120Y866D01*
X1097Y865D02*
X1119Y865D01*
X1098Y864D02*
X1118Y864D01*
X1100Y863D02*
X1116Y863D01*
X1156Y858D02*
X1176Y858D01*
X1153Y857D02*
X1180Y857D01*
X1151Y856D02*
X1181Y856D01*
X1150Y855D02*
X1182Y855D01*
X1149Y854D02*
X1184Y854D01*
X1148Y853D02*
X1184Y853D01*
X1147Y852D02*
X1185Y852D01*
X1146Y851D02*
X1186Y851D01*
X1099Y850D02*
X1103Y850D01*
X1145Y850D02*
X1187Y850D01*
X1097Y849D02*
X1105Y849D01*
X1117Y849D02*
X1120Y849D01*
X1145Y849D02*
X1155Y849D01*
X1178Y849D02*
X1188Y849D01*
X1096Y848D02*
X1106Y848D01*
X1116Y848D02*
X1121Y848D01*
X1144Y848D02*
X1154Y848D01*
X1179Y848D02*
X1188Y848D01*
X1095Y847D02*
X1107Y847D01*
X1116Y847D02*
X1122Y847D01*
X1144Y847D02*
X1153Y847D01*
X1180Y847D02*
X1189Y847D01*
X1094Y846D02*
X1108Y846D01*
X1117Y846D02*
X1122Y846D01*
X1143Y846D02*
X1152Y846D01*
X1181Y846D02*
X1189Y846D01*
X1094Y845D02*
X1100Y845D01*
X1102Y845D02*
X1108Y845D01*
X1117Y845D02*
X1122Y845D01*
X1143Y845D02*
X1151Y845D01*
X1181Y845D02*
X1189Y845D01*
X1094Y844D02*
X1098Y844D01*
X1104Y844D02*
X1109Y844D01*
X1118Y844D02*
X1123Y844D01*
X1143Y844D02*
X1151Y844D01*
X1182Y844D02*
X1189Y844D01*
X1094Y843D02*
X1098Y843D01*
X1104Y843D02*
X1109Y843D01*
X1118Y843D02*
X1123Y843D01*
X1143Y843D02*
X1150Y843D01*
X1182Y843D02*
X1189Y843D01*
X1094Y842D02*
X1098Y842D01*
X1105Y842D02*
X1110Y842D01*
X1118Y842D02*
X1123Y842D01*
X1143Y842D02*
X1150Y842D01*
X1182Y842D02*
X1189Y842D01*
X1094Y841D02*
X1098Y841D01*
X1105Y841D02*
X1110Y841D01*
X1118Y841D02*
X1123Y841D01*
X1143Y841D02*
X1150Y841D01*
X1182Y841D02*
X1189Y841D01*
X1094Y840D02*
X1098Y840D01*
X1106Y840D02*
X1111Y840D01*
X1118Y840D02*
X1123Y840D01*
X1143Y840D02*
X1150Y840D01*
X1182Y840D02*
X1189Y840D01*
X1094Y839D02*
X1098Y839D01*
X1106Y839D02*
X1111Y839D01*
X1118Y839D02*
X1123Y839D01*
X1143Y839D02*
X1150Y839D01*
X1182Y839D02*
X1189Y839D01*
X1094Y838D02*
X1098Y838D01*
X1107Y838D02*
X1111Y838D01*
X1118Y838D02*
X1123Y838D01*
X1143Y838D02*
X1150Y838D01*
X1182Y838D02*
X1189Y838D01*
X1094Y837D02*
X1098Y837D01*
X1107Y837D02*
X1112Y837D01*
X1118Y837D02*
X1123Y837D01*
X1143Y837D02*
X1150Y837D01*
X1182Y837D02*
X1189Y837D01*
X1094Y836D02*
X1098Y836D01*
X1108Y836D02*
X1112Y836D01*
X1118Y836D02*
X1123Y836D01*
X1143Y836D02*
X1150Y836D01*
X1182Y836D02*
X1189Y836D01*
X1094Y835D02*
X1098Y835D01*
X1108Y835D02*
X1113Y835D01*
X1118Y835D02*
X1123Y835D01*
X1143Y835D02*
X1150Y835D01*
X1182Y835D02*
X1189Y835D01*
X1094Y834D02*
X1098Y834D01*
X1108Y834D02*
X1113Y834D01*
X1118Y834D02*
X1123Y834D01*
X1143Y834D02*
X1150Y834D01*
X1182Y834D02*
X1189Y834D01*
X1094Y833D02*
X1098Y833D01*
X1109Y833D02*
X1114Y833D01*
X1118Y833D02*
X1123Y833D01*
X1143Y833D02*
X1150Y833D01*
X1182Y833D02*
X1189Y833D01*
X1094Y832D02*
X1098Y832D01*
X1109Y832D02*
X1114Y832D01*
X1118Y832D02*
X1123Y832D01*
X1143Y832D02*
X1150Y832D01*
X1182Y832D02*
X1189Y832D01*
X1094Y831D02*
X1098Y831D01*
X1110Y831D02*
X1115Y831D01*
X1118Y831D02*
X1123Y831D01*
X1143Y831D02*
X1150Y831D01*
X1182Y831D02*
X1189Y831D01*
X1094Y830D02*
X1099Y830D01*
X1110Y830D02*
X1122Y830D01*
X1143Y830D02*
X1151Y830D01*
X1181Y830D02*
X1189Y830D01*
X1094Y829D02*
X1099Y829D01*
X1111Y829D02*
X1122Y829D01*
X1143Y829D02*
X1152Y829D01*
X1181Y829D02*
X1189Y829D01*
X1095Y828D02*
X1100Y828D01*
X1111Y828D02*
X1122Y828D01*
X1144Y828D02*
X1152Y828D01*
X1180Y828D02*
X1189Y828D01*
X1095Y827D02*
X1100Y827D01*
X1112Y827D02*
X1121Y827D01*
X1144Y827D02*
X1153Y827D01*
X1179Y827D02*
X1188Y827D01*
X1096Y826D02*
X1100Y826D01*
X1113Y826D02*
X1120Y826D01*
X1144Y826D02*
X1154Y826D01*
X1178Y826D02*
X1188Y826D01*
X1097Y825D02*
X1099Y825D01*
X1116Y825D02*
X1118Y825D01*
X1145Y825D02*
X1156Y825D01*
X1176Y825D02*
X1187Y825D01*
X1146Y824D02*
X1186Y824D01*
X1147Y823D02*
X1186Y823D01*
X1147Y822D02*
X1185Y822D01*
X1148Y821D02*
X1184Y821D01*
X1149Y820D02*
X1183Y820D01*
X1150Y819D02*
X1182Y819D01*
X1152Y818D02*
X1180Y818D01*
X1154Y817D02*
X1178Y817D01*
X1099Y812D02*
X1101Y812D01*
X1097Y811D02*
X1102Y811D01*
X1096Y810D02*
X1102Y810D01*
X1095Y809D02*
X1102Y809D01*
X1119Y809D02*
X1122Y809D01*
X1095Y808D02*
X1102Y808D01*
X1119Y808D02*
X1122Y808D01*
X1094Y807D02*
X1100Y807D01*
X1118Y807D02*
X1123Y807D01*
X1094Y806D02*
X1099Y806D01*
X1118Y806D02*
X1123Y806D01*
X1094Y805D02*
X1098Y805D01*
X1118Y805D02*
X1123Y805D01*
X1094Y804D02*
X1098Y804D01*
X1118Y804D02*
X1123Y804D01*
X1094Y803D02*
X1098Y803D01*
X1118Y803D02*
X1123Y803D01*
X1094Y802D02*
X1098Y802D01*
X1118Y802D02*
X1123Y802D01*
X1094Y801D02*
X1098Y801D01*
X1118Y801D02*
X1123Y801D01*
X1094Y800D02*
X1098Y800D01*
X1118Y800D02*
X1123Y800D01*
X1094Y799D02*
X1098Y799D01*
X1118Y799D02*
X1123Y799D01*
X1094Y798D02*
X1098Y798D01*
X1118Y798D02*
X1123Y798D01*
X1094Y797D02*
X1099Y797D01*
X1118Y797D02*
X1123Y797D01*
X1174Y797D02*
X1179Y797D01*
X1094Y796D02*
X1131Y796D01*
X1173Y796D02*
X1182Y796D01*
X1095Y795D02*
X1131Y795D01*
X1172Y795D02*
X1184Y795D01*
X1096Y794D02*
X1132Y794D01*
X1172Y794D02*
X1185Y794D01*
X1097Y793D02*
X1131Y793D01*
X1171Y793D02*
X1186Y793D01*
X1098Y792D02*
X1131Y792D01*
X1171Y792D02*
X1187Y792D01*
X1118Y791D02*
X1123Y791D01*
X1172Y791D02*
X1188Y791D01*
X1118Y790D02*
X1123Y790D01*
X1173Y790D02*
X1188Y790D01*
X1118Y789D02*
X1123Y789D01*
X1174Y789D02*
X1189Y789D01*
X1118Y788D02*
X1123Y788D01*
X1180Y788D02*
X1189Y788D01*
X1119Y787D02*
X1122Y787D01*
X1181Y787D02*
X1189Y787D01*
X1182Y786D02*
X1189Y786D01*
X1182Y785D02*
X1189Y785D01*
X1182Y784D02*
X1189Y784D01*
X1182Y783D02*
X1189Y783D01*
X1182Y782D02*
X1189Y782D01*
X1182Y781D02*
X1189Y781D01*
X1182Y780D02*
X1189Y780D01*
X1182Y779D02*
X1189Y779D01*
X1182Y778D02*
X1189Y778D01*
X1181Y777D02*
X1189Y777D01*
X1180Y776D02*
X1189Y776D01*
X1179Y775D02*
X1189Y775D01*
X1100Y774D02*
X1102Y774D01*
X1179Y774D02*
X1189Y774D01*
X1098Y773D02*
X1105Y773D01*
X1117Y773D02*
X1119Y773D01*
X1178Y773D02*
X1188Y773D01*
X1096Y772D02*
X1106Y772D01*
X1116Y772D02*
X1120Y772D01*
X1177Y772D02*
X1187Y772D01*
X1095Y771D02*
X1107Y771D01*
X1116Y771D02*
X1121Y771D01*
X1176Y771D02*
X1186Y771D01*
X1095Y770D02*
X1108Y770D01*
X1116Y770D02*
X1122Y770D01*
X1175Y770D02*
X1185Y770D01*
X1094Y769D02*
X1108Y769D01*
X1117Y769D02*
X1122Y769D01*
X1174Y769D02*
X1185Y769D01*
X1094Y768D02*
X1099Y768D01*
X1103Y768D02*
X1109Y768D01*
X1118Y768D02*
X1123Y768D01*
X1173Y768D02*
X1184Y768D01*
X1094Y767D02*
X1098Y767D01*
X1104Y767D02*
X1109Y767D01*
X1118Y767D02*
X1123Y767D01*
X1173Y767D02*
X1183Y767D01*
X1094Y766D02*
X1098Y766D01*
X1105Y766D02*
X1110Y766D01*
X1118Y766D02*
X1123Y766D01*
X1172Y766D02*
X1182Y766D01*
X1094Y765D02*
X1098Y765D01*
X1105Y765D02*
X1110Y765D01*
X1118Y765D02*
X1123Y765D01*
X1171Y765D02*
X1181Y765D01*
X1094Y764D02*
X1098Y764D01*
X1106Y764D02*
X1110Y764D01*
X1118Y764D02*
X1123Y764D01*
X1170Y764D02*
X1181Y764D01*
X1094Y763D02*
X1098Y763D01*
X1106Y763D02*
X1111Y763D01*
X1118Y763D02*
X1123Y763D01*
X1145Y763D02*
X1188Y763D01*
X1094Y762D02*
X1098Y762D01*
X1106Y762D02*
X1111Y762D01*
X1118Y762D02*
X1123Y762D01*
X1144Y762D02*
X1189Y762D01*
X1094Y761D02*
X1098Y761D01*
X1107Y761D02*
X1112Y761D01*
X1118Y761D02*
X1123Y761D01*
X1143Y761D02*
X1189Y761D01*
X1094Y760D02*
X1098Y760D01*
X1107Y760D02*
X1112Y760D01*
X1118Y760D02*
X1123Y760D01*
X1143Y760D02*
X1189Y760D01*
X1094Y759D02*
X1098Y759D01*
X1108Y759D02*
X1113Y759D01*
X1118Y759D02*
X1123Y759D01*
X1143Y759D02*
X1189Y759D01*
X1094Y758D02*
X1098Y758D01*
X1108Y758D02*
X1113Y758D01*
X1118Y758D02*
X1123Y758D01*
X1143Y758D02*
X1189Y758D01*
X1094Y757D02*
X1098Y757D01*
X1109Y757D02*
X1113Y757D01*
X1118Y757D02*
X1123Y757D01*
X1144Y757D02*
X1188Y757D01*
X1094Y756D02*
X1098Y756D01*
X1109Y756D02*
X1114Y756D01*
X1118Y756D02*
X1123Y756D01*
X1145Y756D02*
X1187Y756D01*
X1094Y755D02*
X1098Y755D01*
X1109Y755D02*
X1114Y755D01*
X1118Y755D02*
X1123Y755D01*
X1094Y754D02*
X1098Y754D01*
X1110Y754D02*
X1115Y754D01*
X1118Y754D02*
X1123Y754D01*
X1094Y753D02*
X1099Y753D01*
X1110Y753D02*
X1122Y753D01*
X1094Y752D02*
X1100Y752D01*
X1111Y752D02*
X1122Y752D01*
X1095Y751D02*
X1100Y751D01*
X1112Y751D02*
X1121Y751D01*
X1095Y750D02*
X1100Y750D01*
X1113Y750D02*
X1120Y750D01*
X1096Y749D02*
X1100Y749D01*
X1114Y749D02*
X1119Y749D01*
X1097Y748D02*
X1098Y748D01*
X1152Y736D02*
X1155Y736D01*
X1130Y735D02*
X1133Y735D01*
X1150Y735D02*
X1156Y735D01*
X1128Y734D02*
X1134Y734D01*
X1148Y734D02*
X1157Y734D01*
X1126Y733D02*
X1134Y733D01*
X1147Y733D02*
X1157Y733D01*
X1125Y732D02*
X1134Y732D01*
X1146Y732D02*
X1157Y732D01*
X1123Y731D02*
X1133Y731D01*
X1145Y731D02*
X1157Y731D01*
X1183Y731D02*
X1188Y731D01*
X1121Y730D02*
X1131Y730D01*
X1145Y730D02*
X1157Y730D01*
X1183Y730D02*
X1189Y730D01*
X1120Y729D02*
X1129Y729D01*
X1144Y729D02*
X1156Y729D01*
X1182Y729D02*
X1189Y729D01*
X1118Y728D02*
X1128Y728D01*
X1144Y728D02*
X1154Y728D01*
X1182Y728D02*
X1189Y728D01*
X1116Y727D02*
X1126Y727D01*
X1143Y727D02*
X1152Y727D01*
X1182Y727D02*
X1189Y727D01*
X1114Y726D02*
X1124Y726D01*
X1143Y726D02*
X1151Y726D01*
X1182Y726D02*
X1189Y726D01*
X1113Y725D02*
X1122Y725D01*
X1143Y725D02*
X1151Y725D01*
X1182Y725D02*
X1189Y725D01*
X1111Y724D02*
X1121Y724D01*
X1143Y724D02*
X1150Y724D01*
X1182Y724D02*
X1189Y724D01*
X1109Y723D02*
X1119Y723D01*
X1143Y723D02*
X1150Y723D01*
X1182Y723D02*
X1189Y723D01*
X1108Y722D02*
X1117Y722D01*
X1143Y722D02*
X1150Y722D01*
X1182Y722D02*
X1189Y722D01*
X1106Y721D02*
X1116Y721D01*
X1143Y721D02*
X1150Y721D01*
X1182Y721D02*
X1189Y721D01*
X1104Y720D02*
X1114Y720D01*
X1143Y720D02*
X1150Y720D01*
X1182Y720D02*
X1189Y720D01*
X1103Y719D02*
X1112Y719D01*
X1143Y719D02*
X1150Y719D01*
X1182Y719D02*
X1189Y719D01*
X1101Y718D02*
X1111Y718D01*
X1143Y718D02*
X1150Y718D01*
X1182Y718D02*
X1189Y718D01*
X1099Y717D02*
X1109Y717D01*
X1143Y717D02*
X1150Y717D01*
X1182Y717D02*
X1189Y717D01*
X1097Y716D02*
X1107Y716D01*
X1143Y716D02*
X1150Y716D01*
X1182Y716D02*
X1189Y716D01*
X1096Y715D02*
X1105Y715D01*
X1143Y715D02*
X1150Y715D01*
X1182Y715D02*
X1189Y715D01*
X1094Y714D02*
X1104Y714D01*
X1143Y714D02*
X1151Y714D01*
X1182Y714D02*
X1189Y714D01*
X1094Y713D02*
X1102Y713D01*
X1143Y713D02*
X1151Y713D01*
X1182Y713D02*
X1189Y713D01*
X1094Y712D02*
X1100Y712D01*
X1143Y712D02*
X1152Y712D01*
X1182Y712D02*
X1189Y712D01*
X1094Y711D02*
X1099Y711D01*
X1144Y711D02*
X1201Y711D01*
X1095Y710D02*
X1097Y710D01*
X1144Y710D02*
X1202Y710D01*
X1145Y709D02*
X1203Y709D01*
X1145Y708D02*
X1203Y708D01*
X1146Y707D02*
X1204Y707D01*
X1147Y706D02*
X1203Y706D01*
X1148Y705D02*
X1203Y705D01*
X1150Y704D02*
X1202Y704D01*
X1154Y703D02*
X1200Y703D01*
X1182Y702D02*
X1189Y702D01*
X1182Y701D02*
X1189Y701D01*
X1182Y700D02*
X1189Y700D01*
X1182Y699D02*
X1189Y699D01*
X1096Y698D02*
X1099Y698D01*
X1182Y698D02*
X1189Y698D01*
X1094Y697D02*
X1118Y697D01*
X1182Y697D02*
X1189Y697D01*
X1094Y696D02*
X1120Y696D01*
X1183Y696D02*
X1188Y696D01*
X1094Y695D02*
X1121Y695D01*
X1184Y695D02*
X1187Y695D01*
X1094Y694D02*
X1122Y694D01*
X1095Y693D02*
X1122Y693D01*
X1117Y692D02*
X1122Y692D01*
X1118Y691D02*
X1122Y691D01*
X1118Y690D02*
X1122Y690D01*
X1117Y689D02*
X1122Y689D01*
X1116Y688D02*
X1122Y688D01*
X1095Y687D02*
X1121Y687D01*
X1094Y686D02*
X1120Y686D01*
X1094Y685D02*
X1121Y685D01*
X1094Y684D02*
X1122Y684D01*
X1094Y683D02*
X1122Y683D01*
X1095Y682D02*
X1123Y682D01*
X1118Y681D02*
X1123Y681D01*
X1118Y680D02*
X1123Y680D01*
X1117Y679D02*
X1122Y679D01*
X1116Y678D02*
X1122Y678D01*
X1116Y677D02*
X1121Y677D01*
X1095Y676D02*
X1121Y676D01*
X1094Y675D02*
X1122Y675D01*
X1146Y675D02*
X1154Y675D01*
X1094Y674D02*
X1123Y674D01*
X1144Y674D02*
X1179Y674D01*
X1094Y673D02*
X1123Y673D01*
X1143Y673D02*
X1182Y673D01*
X1094Y672D02*
X1122Y672D01*
X1143Y672D02*
X1184Y672D01*
X1096Y671D02*
X1121Y671D01*
X1143Y671D02*
X1185Y671D01*
X1143Y670D02*
X1186Y670D01*
X1143Y669D02*
X1187Y669D01*
X1144Y668D02*
X1188Y668D01*
X1146Y667D02*
X1188Y667D01*
X1172Y666D02*
X1189Y666D01*
X1180Y665D02*
X1189Y665D01*
X1181Y664D02*
X1189Y664D01*
X1182Y663D02*
X1189Y663D01*
X1182Y662D02*
X1189Y662D01*
X1182Y661D02*
X1189Y661D01*
X1182Y660D02*
X1189Y660D01*
X1100Y659D02*
X1116Y659D01*
X1182Y659D02*
X1189Y659D01*
X1099Y658D02*
X1118Y658D01*
X1182Y658D02*
X1189Y658D01*
X1097Y657D02*
X1119Y657D01*
X1182Y657D02*
X1189Y657D01*
X1096Y656D02*
X1120Y656D01*
X1182Y656D02*
X1189Y656D01*
X1096Y655D02*
X1121Y655D01*
X1181Y655D02*
X1189Y655D01*
X1095Y654D02*
X1101Y654D01*
X1115Y654D02*
X1121Y654D01*
X1181Y654D02*
X1189Y654D01*
X1094Y653D02*
X1100Y653D01*
X1116Y653D02*
X1122Y653D01*
X1180Y653D02*
X1189Y653D01*
X1094Y652D02*
X1099Y652D01*
X1117Y652D02*
X1122Y652D01*
X1180Y652D02*
X1188Y652D01*
X1094Y651D02*
X1098Y651D01*
X1118Y651D02*
X1123Y651D01*
X1179Y651D02*
X1188Y651D01*
X1094Y650D02*
X1098Y650D01*
X1118Y650D02*
X1123Y650D01*
X1178Y650D02*
X1187Y650D01*
X1094Y649D02*
X1098Y649D01*
X1118Y649D02*
X1123Y649D01*
X1178Y649D02*
X1187Y649D01*
X1094Y648D02*
X1098Y648D01*
X1118Y648D02*
X1123Y648D01*
X1177Y648D02*
X1186Y648D01*
X1094Y647D02*
X1098Y647D01*
X1118Y647D02*
X1123Y647D01*
X1176Y647D02*
X1185Y647D01*
X1094Y646D02*
X1098Y646D01*
X1118Y646D02*
X1123Y646D01*
X1176Y646D02*
X1185Y646D01*
X1094Y645D02*
X1098Y645D01*
X1118Y645D02*
X1123Y645D01*
X1175Y645D02*
X1184Y645D01*
X1094Y644D02*
X1098Y644D01*
X1118Y644D02*
X1123Y644D01*
X1174Y644D02*
X1184Y644D01*
X1094Y643D02*
X1098Y643D01*
X1118Y643D02*
X1123Y643D01*
X1174Y643D02*
X1183Y643D01*
X1094Y642D02*
X1098Y642D01*
X1118Y642D02*
X1123Y642D01*
X1147Y642D02*
X1186Y642D01*
X1094Y641D02*
X1099Y641D01*
X1117Y641D02*
X1122Y641D01*
X1144Y641D02*
X1188Y641D01*
X1094Y640D02*
X1100Y640D01*
X1117Y640D02*
X1122Y640D01*
X1144Y640D02*
X1189Y640D01*
X1095Y639D02*
X1101Y639D01*
X1116Y639D02*
X1121Y639D01*
X1143Y639D02*
X1189Y639D01*
X1095Y638D02*
X1121Y638D01*
X1143Y638D02*
X1189Y638D01*
X1096Y637D02*
X1120Y637D01*
X1143Y637D02*
X1189Y637D01*
X1097Y636D02*
X1119Y636D01*
X1143Y636D02*
X1189Y636D01*
X1098Y635D02*
X1118Y635D01*
X1144Y635D02*
X1188Y635D01*
X1099Y634D02*
X1117Y634D01*
X1145Y634D02*
X1187Y634D01*
X1095Y621D02*
X1096Y621D01*
X1120Y621D02*
X1121Y621D01*
X1094Y620D02*
X1097Y620D01*
X1119Y620D02*
X1122Y620D01*
X1094Y619D02*
X1098Y619D01*
X1118Y619D02*
X1123Y619D01*
X1094Y618D02*
X1098Y618D01*
X1118Y618D02*
X1123Y618D01*
X1094Y617D02*
X1098Y617D01*
X1118Y617D02*
X1123Y617D01*
X1094Y616D02*
X1098Y616D01*
X1118Y616D02*
X1123Y616D01*
X1094Y615D02*
X1098Y615D01*
X1118Y615D02*
X1123Y615D01*
X1094Y614D02*
X1098Y614D01*
X1118Y614D02*
X1123Y614D01*
X1155Y614D02*
X1177Y614D01*
X1094Y613D02*
X1098Y613D01*
X1118Y613D02*
X1123Y613D01*
X1152Y613D02*
X1180Y613D01*
X1094Y612D02*
X1098Y612D01*
X1118Y612D02*
X1123Y612D01*
X1151Y612D02*
X1182Y612D01*
X1094Y611D02*
X1098Y611D01*
X1118Y611D02*
X1123Y611D01*
X1150Y611D02*
X1183Y611D01*
X1094Y610D02*
X1098Y610D01*
X1118Y610D02*
X1123Y610D01*
X1149Y610D02*
X1184Y610D01*
X1094Y609D02*
X1098Y609D01*
X1118Y609D02*
X1123Y609D01*
X1148Y609D02*
X1185Y609D01*
X1094Y608D02*
X1098Y608D01*
X1118Y608D02*
X1123Y608D01*
X1147Y608D02*
X1185Y608D01*
X1094Y607D02*
X1098Y607D01*
X1118Y607D02*
X1123Y607D01*
X1146Y607D02*
X1186Y607D01*
X1094Y606D02*
X1098Y606D01*
X1118Y606D02*
X1123Y606D01*
X1145Y606D02*
X1187Y606D01*
X1094Y605D02*
X1099Y605D01*
X1117Y605D02*
X1122Y605D01*
X1145Y605D02*
X1155Y605D01*
X1178Y605D02*
X1188Y605D01*
X1094Y604D02*
X1100Y604D01*
X1116Y604D02*
X1122Y604D01*
X1144Y604D02*
X1153Y604D01*
X1179Y604D02*
X1188Y604D01*
X1095Y603D02*
X1101Y603D01*
X1115Y603D02*
X1121Y603D01*
X1144Y603D02*
X1153Y603D01*
X1180Y603D02*
X1189Y603D01*
X1096Y602D02*
X1102Y602D01*
X1114Y602D02*
X1121Y602D01*
X1143Y602D02*
X1152Y602D01*
X1181Y602D02*
X1189Y602D01*
X1096Y601D02*
X1103Y601D01*
X1114Y601D02*
X1120Y601D01*
X1143Y601D02*
X1151Y601D01*
X1181Y601D02*
X1189Y601D01*
X1097Y600D02*
X1119Y600D01*
X1143Y600D02*
X1150Y600D01*
X1182Y600D02*
X1189Y600D01*
X1098Y599D02*
X1118Y599D01*
X1143Y599D02*
X1150Y599D01*
X1182Y599D02*
X1189Y599D01*
X1099Y598D02*
X1117Y598D01*
X1143Y598D02*
X1150Y598D01*
X1182Y598D02*
X1189Y598D01*
X1100Y597D02*
X1116Y597D01*
X1143Y597D02*
X1150Y597D01*
X1182Y597D02*
X1189Y597D01*
X1101Y596D02*
X1115Y596D01*
X1143Y596D02*
X1150Y596D01*
X1182Y596D02*
X1189Y596D01*
X1104Y595D02*
X1112Y595D01*
X1143Y595D02*
X1150Y595D01*
X1182Y595D02*
X1189Y595D01*
X1143Y594D02*
X1150Y594D01*
X1182Y594D02*
X1189Y594D01*
X1143Y593D02*
X1150Y593D01*
X1182Y593D02*
X1189Y593D01*
X1143Y592D02*
X1150Y592D01*
X1182Y592D02*
X1189Y592D01*
X1143Y591D02*
X1150Y591D01*
X1182Y591D02*
X1189Y591D01*
X1143Y590D02*
X1150Y590D01*
X1182Y590D02*
X1189Y590D01*
X1143Y589D02*
X1150Y589D01*
X1182Y589D02*
X1189Y589D01*
X1143Y588D02*
X1150Y588D01*
X1182Y588D02*
X1189Y588D01*
X1143Y587D02*
X1151Y587D01*
X1182Y587D02*
X1189Y587D01*
X1143Y586D02*
X1151Y586D01*
X1181Y586D02*
X1189Y586D01*
X1143Y585D02*
X1152Y585D01*
X1181Y585D02*
X1189Y585D01*
X1144Y584D02*
X1153Y584D01*
X1180Y584D02*
X1189Y584D01*
X1144Y583D02*
X1153Y583D01*
X1179Y583D02*
X1188Y583D01*
X1145Y582D02*
X1155Y582D01*
X1178Y582D02*
X1188Y582D01*
X1145Y581D02*
X1187Y581D01*
X1146Y580D02*
X1186Y580D01*
X1147Y579D02*
X1185Y579D01*
X1148Y578D02*
X1185Y578D01*
X1148Y577D02*
X1184Y577D01*
X1149Y576D02*
X1183Y576D01*
X1102Y575D02*
X1107Y575D01*
X1151Y575D02*
X1181Y575D01*
X1101Y574D02*
X1109Y574D01*
X1152Y574D02*
X1180Y574D01*
X1100Y573D02*
X1109Y573D01*
X1155Y573D02*
X1177Y573D01*
X1100Y572D02*
X1109Y572D01*
X1100Y571D02*
X1109Y571D01*
X1100Y570D02*
X1109Y570D01*
X1100Y569D02*
X1109Y569D01*
X1100Y568D02*
X1109Y568D01*
X1100Y567D02*
X1109Y567D01*
X1101Y566D02*
X1109Y566D01*
X1102Y565D02*
X1108Y565D01*
X1145Y553D02*
X1148Y553D01*
X1202Y553D02*
X1205Y553D01*
X1144Y552D02*
X1149Y552D01*
X1201Y552D02*
X1206Y552D01*
X1143Y551D02*
X1150Y551D01*
X1200Y551D02*
X1207Y551D01*
X1143Y550D02*
X1150Y550D01*
X1200Y550D02*
X1207Y550D01*
X1143Y549D02*
X1150Y549D01*
X1200Y549D02*
X1207Y549D01*
X1143Y548D02*
X1150Y548D01*
X1200Y548D02*
X1207Y548D01*
X1143Y547D02*
X1150Y547D01*
X1200Y547D02*
X1207Y547D01*
X1143Y546D02*
X1150Y546D01*
X1200Y546D02*
X1207Y546D01*
X1143Y545D02*
X1150Y545D01*
X1200Y545D02*
X1207Y545D01*
X1100Y544D02*
X1117Y544D01*
X1143Y544D02*
X1150Y544D01*
X1200Y544D02*
X1207Y544D01*
X1098Y543D02*
X1118Y543D01*
X1143Y543D02*
X1150Y543D01*
X1200Y543D02*
X1207Y543D01*
X1097Y542D02*
X1119Y542D01*
X1143Y542D02*
X1150Y542D01*
X1200Y542D02*
X1207Y542D01*
X1096Y541D02*
X1120Y541D01*
X1143Y541D02*
X1150Y541D01*
X1200Y541D02*
X1207Y541D01*
X1095Y540D02*
X1121Y540D01*
X1143Y540D02*
X1150Y540D01*
X1200Y540D02*
X1207Y540D01*
X1095Y539D02*
X1101Y539D01*
X1115Y539D02*
X1122Y539D01*
X1143Y539D02*
X1150Y539D01*
X1200Y539D02*
X1207Y539D01*
X1094Y538D02*
X1100Y538D01*
X1117Y538D02*
X1122Y538D01*
X1143Y538D02*
X1150Y538D01*
X1200Y538D02*
X1207Y538D01*
X1094Y537D02*
X1099Y537D01*
X1117Y537D02*
X1122Y537D01*
X1143Y537D02*
X1150Y537D01*
X1200Y537D02*
X1207Y537D01*
X1094Y536D02*
X1098Y536D01*
X1118Y536D02*
X1123Y536D01*
X1143Y536D02*
X1150Y536D01*
X1200Y536D02*
X1207Y536D01*
X1094Y535D02*
X1098Y535D01*
X1118Y535D02*
X1123Y535D01*
X1143Y535D02*
X1150Y535D01*
X1200Y535D02*
X1207Y535D01*
X1094Y534D02*
X1098Y534D01*
X1118Y534D02*
X1123Y534D01*
X1143Y534D02*
X1150Y534D01*
X1200Y534D02*
X1207Y534D01*
X1094Y533D02*
X1098Y533D01*
X1118Y533D02*
X1123Y533D01*
X1143Y533D02*
X1150Y533D01*
X1200Y533D02*
X1207Y533D01*
X1094Y532D02*
X1098Y532D01*
X1118Y532D02*
X1123Y532D01*
X1143Y532D02*
X1151Y532D01*
X1199Y532D02*
X1207Y532D01*
X1094Y531D02*
X1098Y531D01*
X1118Y531D02*
X1123Y531D01*
X1143Y531D02*
X1151Y531D01*
X1199Y531D02*
X1207Y531D01*
X1094Y530D02*
X1098Y530D01*
X1118Y530D02*
X1123Y530D01*
X1143Y530D02*
X1152Y530D01*
X1198Y530D02*
X1207Y530D01*
X1094Y529D02*
X1099Y529D01*
X1117Y529D02*
X1122Y529D01*
X1144Y529D02*
X1154Y529D01*
X1196Y529D02*
X1206Y529D01*
X1094Y528D02*
X1100Y528D01*
X1117Y528D02*
X1122Y528D01*
X1144Y528D02*
X1156Y528D01*
X1194Y528D02*
X1206Y528D01*
X1095Y527D02*
X1100Y527D01*
X1116Y527D02*
X1122Y527D01*
X1145Y527D02*
X1158Y527D01*
X1192Y527D02*
X1205Y527D01*
X1095Y526D02*
X1101Y526D01*
X1115Y526D02*
X1121Y526D01*
X1146Y526D02*
X1160Y526D01*
X1190Y526D02*
X1205Y526D01*
X1096Y525D02*
X1102Y525D01*
X1114Y525D02*
X1120Y525D01*
X1146Y525D02*
X1162Y525D01*
X1188Y525D02*
X1204Y525D01*
X1097Y524D02*
X1104Y524D01*
X1113Y524D02*
X1120Y524D01*
X1147Y524D02*
X1164Y524D01*
X1186Y524D02*
X1203Y524D01*
X1094Y523D02*
X1133Y523D01*
X1149Y523D02*
X1166Y523D01*
X1184Y523D02*
X1202Y523D01*
X1094Y522D02*
X1134Y522D01*
X1150Y522D02*
X1168Y522D01*
X1182Y522D02*
X1200Y522D01*
X1094Y521D02*
X1134Y521D01*
X1152Y521D02*
X1170Y521D01*
X1180Y521D02*
X1198Y521D01*
X1094Y520D02*
X1134Y520D01*
X1154Y520D02*
X1196Y520D01*
X1095Y519D02*
X1133Y519D01*
X1156Y519D02*
X1194Y519D01*
X1158Y518D02*
X1192Y518D01*
X1160Y517D02*
X1190Y517D01*
X1162Y516D02*
X1188Y516D01*
X1164Y515D02*
X1186Y515D01*
X1166Y514D02*
X1184Y514D01*
X1169Y513D02*
X1181Y513D01*
X1172Y512D02*
X1178Y512D01*
X1095Y506D02*
X1122Y506D01*
X1094Y505D02*
X1122Y505D01*
X1094Y504D02*
X1123Y504D01*
X1094Y503D02*
X1122Y503D01*
X1095Y502D02*
X1122Y502D01*
X1098Y501D02*
X1103Y501D01*
X1097Y500D02*
X1103Y500D01*
X1097Y499D02*
X1102Y499D01*
X1096Y498D02*
X1101Y498D01*
X1095Y497D02*
X1101Y497D01*
X1095Y496D02*
X1100Y496D01*
X1094Y495D02*
X1099Y495D01*
X1094Y494D02*
X1099Y494D01*
X1094Y493D02*
X1098Y493D01*
X1094Y492D02*
X1098Y492D01*
X1137Y492D02*
X1139Y492D01*
X1094Y491D02*
X1098Y491D01*
X1135Y491D02*
X1141Y491D01*
X1094Y490D02*
X1098Y490D01*
X1135Y490D02*
X1141Y490D01*
X1094Y489D02*
X1098Y489D01*
X1135Y489D02*
X1142Y489D01*
X1094Y488D02*
X1098Y488D01*
X1134Y488D02*
X1142Y488D01*
X1094Y487D02*
X1099Y487D01*
X1134Y487D02*
X1142Y487D01*
X1094Y486D02*
X1108Y486D01*
X1134Y486D02*
X1142Y486D01*
X1095Y485D02*
X1122Y485D01*
X1134Y485D02*
X1142Y485D01*
X1095Y484D02*
X1122Y484D01*
X1134Y484D02*
X1142Y484D01*
X1096Y483D02*
X1123Y483D01*
X1134Y483D02*
X1142Y483D01*
X1097Y482D02*
X1122Y482D01*
X1134Y482D02*
X1142Y482D01*
X1100Y481D02*
X1122Y481D01*
X1134Y481D02*
X1142Y481D01*
X1134Y480D02*
X1142Y480D01*
X1134Y479D02*
X1142Y479D01*
X1134Y478D02*
X1142Y478D01*
X1134Y477D02*
X1142Y477D01*
X1134Y476D02*
X1142Y476D01*
X1134Y475D02*
X1142Y475D01*
X1134Y474D02*
X1142Y474D01*
X1134Y473D02*
X1142Y473D01*
X1134Y472D02*
X1142Y472D01*
X1134Y471D02*
X1142Y471D01*
X1134Y470D02*
X1142Y470D01*
X1134Y469D02*
X1142Y469D01*
X1095Y468D02*
X1108Y468D01*
X1134Y468D02*
X1142Y468D01*
X1094Y467D02*
X1118Y467D01*
X1134Y467D02*
X1142Y467D01*
X1094Y466D02*
X1120Y466D01*
X1134Y466D02*
X1142Y466D01*
X1094Y465D02*
X1121Y465D01*
X1134Y465D02*
X1142Y465D01*
X1094Y464D02*
X1121Y464D01*
X1134Y464D02*
X1142Y464D01*
X1099Y463D02*
X1122Y463D01*
X1134Y463D02*
X1142Y463D01*
X1117Y462D02*
X1122Y462D01*
X1134Y462D02*
X1142Y462D01*
X1118Y461D02*
X1123Y461D01*
X1134Y461D02*
X1142Y461D01*
X1118Y460D02*
X1123Y460D01*
X1134Y460D02*
X1142Y460D01*
X1118Y459D02*
X1123Y459D01*
X1134Y459D02*
X1142Y459D01*
X1118Y458D02*
X1123Y458D01*
X1134Y458D02*
X1142Y458D01*
X1118Y457D02*
X1123Y457D01*
X1134Y457D02*
X1142Y457D01*
X1118Y456D02*
X1123Y456D01*
X1134Y456D02*
X1142Y456D01*
X1118Y455D02*
X1122Y455D01*
X1134Y455D02*
X1142Y455D01*
X1117Y454D02*
X1122Y454D01*
X1135Y454D02*
X1142Y454D01*
X1116Y453D02*
X1122Y453D01*
X1135Y453D02*
X1141Y453D01*
X1116Y452D02*
X1121Y452D01*
X1136Y452D02*
X1140Y452D01*
X1115Y451D02*
X1120Y451D01*
X1137Y451D02*
X1139Y451D01*
X1114Y450D02*
X1120Y450D01*
X1114Y449D02*
X1119Y449D01*
X1113Y448D02*
X1119Y448D01*
X1095Y447D02*
X1133Y447D01*
X1094Y446D02*
X1134Y446D01*
X1094Y445D02*
X1134Y445D01*
X1094Y444D02*
X1134Y444D01*
X1094Y443D02*
X1133Y443D01*
X1149Y431D02*
X1155Y431D01*
X1195Y431D02*
X1199Y431D01*
X1100Y430D02*
X1101Y430D01*
X1147Y430D02*
X1156Y430D01*
X1194Y430D02*
X1201Y430D01*
X1097Y429D02*
X1102Y429D01*
X1146Y429D02*
X1158Y429D01*
X1193Y429D02*
X1203Y429D01*
X1096Y428D02*
X1102Y428D01*
X1145Y428D02*
X1159Y428D01*
X1193Y428D02*
X1204Y428D01*
X1095Y427D02*
X1102Y427D01*
X1119Y427D02*
X1122Y427D01*
X1144Y427D02*
X1160Y427D01*
X1193Y427D02*
X1205Y427D01*
X1095Y426D02*
X1102Y426D01*
X1119Y426D02*
X1122Y426D01*
X1144Y426D02*
X1162Y426D01*
X1193Y426D02*
X1205Y426D01*
X1094Y425D02*
X1100Y425D01*
X1118Y425D02*
X1123Y425D01*
X1143Y425D02*
X1163Y425D01*
X1193Y425D02*
X1206Y425D01*
X1094Y424D02*
X1099Y424D01*
X1118Y424D02*
X1123Y424D01*
X1143Y424D02*
X1164Y424D01*
X1194Y424D02*
X1206Y424D01*
X1094Y423D02*
X1098Y423D01*
X1118Y423D02*
X1123Y423D01*
X1143Y423D02*
X1166Y423D01*
X1197Y423D02*
X1207Y423D01*
X1094Y422D02*
X1098Y422D01*
X1118Y422D02*
X1123Y422D01*
X1143Y422D02*
X1150Y422D01*
X1154Y422D02*
X1167Y422D01*
X1199Y422D02*
X1207Y422D01*
X1094Y421D02*
X1098Y421D01*
X1118Y421D02*
X1123Y421D01*
X1143Y421D02*
X1150Y421D01*
X1155Y421D02*
X1168Y421D01*
X1200Y421D02*
X1207Y421D01*
X1094Y420D02*
X1098Y420D01*
X1118Y420D02*
X1123Y420D01*
X1143Y420D02*
X1150Y420D01*
X1156Y420D02*
X1169Y420D01*
X1200Y420D02*
X1207Y420D01*
X1094Y419D02*
X1098Y419D01*
X1118Y419D02*
X1123Y419D01*
X1143Y419D02*
X1150Y419D01*
X1158Y419D02*
X1171Y419D01*
X1200Y419D02*
X1207Y419D01*
X1094Y418D02*
X1098Y418D01*
X1118Y418D02*
X1123Y418D01*
X1143Y418D02*
X1150Y418D01*
X1159Y418D02*
X1172Y418D01*
X1200Y418D02*
X1207Y418D01*
X1094Y417D02*
X1098Y417D01*
X1118Y417D02*
X1123Y417D01*
X1143Y417D02*
X1150Y417D01*
X1160Y417D02*
X1173Y417D01*
X1200Y417D02*
X1207Y417D01*
X1094Y416D02*
X1098Y416D01*
X1118Y416D02*
X1123Y416D01*
X1143Y416D02*
X1150Y416D01*
X1162Y416D02*
X1175Y416D01*
X1200Y416D02*
X1207Y416D01*
X1094Y415D02*
X1099Y415D01*
X1118Y415D02*
X1123Y415D01*
X1143Y415D02*
X1150Y415D01*
X1163Y415D02*
X1176Y415D01*
X1200Y415D02*
X1207Y415D01*
X1094Y414D02*
X1130Y414D01*
X1143Y414D02*
X1150Y414D01*
X1164Y414D02*
X1177Y414D01*
X1200Y414D02*
X1207Y414D01*
X1095Y413D02*
X1131Y413D01*
X1143Y413D02*
X1150Y413D01*
X1165Y413D02*
X1178Y413D01*
X1200Y413D02*
X1207Y413D01*
X1095Y412D02*
X1132Y412D01*
X1143Y412D02*
X1150Y412D01*
X1167Y412D02*
X1180Y412D01*
X1200Y412D02*
X1207Y412D01*
X1096Y411D02*
X1132Y411D01*
X1143Y411D02*
X1150Y411D01*
X1168Y411D02*
X1181Y411D01*
X1200Y411D02*
X1207Y411D01*
X1098Y410D02*
X1131Y410D01*
X1143Y410D02*
X1150Y410D01*
X1169Y410D02*
X1182Y410D01*
X1200Y410D02*
X1207Y410D01*
X1118Y409D02*
X1123Y409D01*
X1143Y409D02*
X1150Y409D01*
X1171Y409D02*
X1184Y409D01*
X1200Y409D02*
X1207Y409D01*
X1118Y408D02*
X1123Y408D01*
X1143Y408D02*
X1150Y408D01*
X1172Y408D02*
X1185Y408D01*
X1200Y408D02*
X1207Y408D01*
X1118Y407D02*
X1123Y407D01*
X1143Y407D02*
X1150Y407D01*
X1173Y407D02*
X1186Y407D01*
X1200Y407D02*
X1207Y407D01*
X1118Y406D02*
X1123Y406D01*
X1143Y406D02*
X1150Y406D01*
X1174Y406D02*
X1187Y406D01*
X1200Y406D02*
X1207Y406D01*
X1119Y405D02*
X1122Y405D01*
X1143Y405D02*
X1150Y405D01*
X1176Y405D02*
X1189Y405D01*
X1200Y405D02*
X1207Y405D01*
X1120Y404D02*
X1121Y404D01*
X1143Y404D02*
X1150Y404D01*
X1177Y404D02*
X1190Y404D01*
X1200Y404D02*
X1207Y404D01*
X1143Y403D02*
X1150Y403D01*
X1178Y403D02*
X1191Y403D01*
X1200Y403D02*
X1207Y403D01*
X1143Y402D02*
X1150Y402D01*
X1180Y402D02*
X1193Y402D01*
X1200Y402D02*
X1207Y402D01*
X1143Y401D02*
X1150Y401D01*
X1181Y401D02*
X1194Y401D01*
X1200Y401D02*
X1207Y401D01*
X1143Y400D02*
X1151Y400D01*
X1182Y400D02*
X1195Y400D01*
X1200Y400D02*
X1207Y400D01*
X1143Y399D02*
X1151Y399D01*
X1183Y399D02*
X1196Y399D01*
X1200Y399D02*
X1207Y399D01*
X1143Y398D02*
X1155Y398D01*
X1185Y398D02*
X1207Y398D01*
X1144Y397D02*
X1156Y397D01*
X1186Y397D02*
X1207Y397D01*
X1144Y396D02*
X1157Y396D01*
X1187Y396D02*
X1207Y396D01*
X1145Y395D02*
X1157Y395D01*
X1189Y395D02*
X1206Y395D01*
X1145Y394D02*
X1157Y394D01*
X1190Y394D02*
X1206Y394D01*
X1146Y393D02*
X1157Y393D01*
X1191Y393D02*
X1205Y393D01*
X1148Y392D02*
X1157Y392D01*
X1192Y392D02*
X1204Y392D01*
X1149Y391D02*
X1156Y391D01*
X1194Y391D02*
X1202Y391D01*
X1152Y390D02*
X1154Y390D01*
X1197Y390D02*
X1200Y390D01*
X1095Y389D02*
X1096Y389D01*
X1094Y388D02*
X1097Y388D01*
X1094Y387D02*
X1098Y387D01*
X1094Y386D02*
X1098Y386D01*
X1094Y385D02*
X1098Y385D01*
X1094Y384D02*
X1098Y384D01*
X1094Y383D02*
X1098Y383D01*
X1094Y382D02*
X1098Y382D01*
X1094Y381D02*
X1121Y381D01*
X1131Y381D02*
X1135Y381D01*
X1094Y380D02*
X1122Y380D01*
X1130Y380D02*
X1136Y380D01*
X1094Y379D02*
X1123Y379D01*
X1130Y379D02*
X1136Y379D01*
X1094Y378D02*
X1123Y378D01*
X1130Y378D02*
X1136Y378D01*
X1094Y377D02*
X1123Y377D01*
X1130Y377D02*
X1136Y377D01*
X1094Y376D02*
X1098Y376D01*
X1118Y376D02*
X1123Y376D01*
X1130Y376D02*
X1136Y376D01*
X1094Y375D02*
X1098Y375D01*
X1118Y375D02*
X1123Y375D01*
X1130Y375D02*
X1136Y375D01*
X1094Y374D02*
X1098Y374D01*
X1118Y374D02*
X1123Y374D01*
X1131Y374D02*
X1135Y374D01*
X1094Y373D02*
X1098Y373D01*
X1118Y373D02*
X1123Y373D01*
X1094Y372D02*
X1098Y372D01*
X1118Y372D02*
X1123Y372D01*
X1094Y371D02*
X1098Y371D01*
X1118Y371D02*
X1123Y371D01*
X1094Y370D02*
X1098Y370D01*
X1119Y370D02*
X1122Y370D01*
X1145Y370D02*
X1163Y370D01*
X1094Y369D02*
X1097Y369D01*
X1119Y369D02*
X1122Y369D01*
X1144Y369D02*
X1180Y369D01*
X1143Y368D02*
X1183Y368D01*
X1143Y367D02*
X1184Y367D01*
X1143Y366D02*
X1186Y366D01*
X1143Y365D02*
X1186Y365D01*
X1144Y364D02*
X1187Y364D01*
X1145Y363D02*
X1188Y363D01*
X1147Y362D02*
X1188Y362D01*
X1146Y361D02*
X1155Y361D01*
X1162Y361D02*
X1171Y361D01*
X1177Y361D02*
X1189Y361D01*
X1146Y360D02*
X1155Y360D01*
X1163Y360D02*
X1171Y360D01*
X1180Y360D02*
X1189Y360D01*
X1145Y359D02*
X1154Y359D01*
X1164Y359D02*
X1172Y359D01*
X1181Y359D02*
X1189Y359D01*
X1145Y358D02*
X1153Y358D01*
X1164Y358D02*
X1172Y358D01*
X1182Y358D02*
X1189Y358D01*
X1144Y357D02*
X1153Y357D01*
X1164Y357D02*
X1172Y357D01*
X1182Y357D02*
X1189Y357D01*
X1143Y356D02*
X1152Y356D01*
X1164Y356D02*
X1172Y356D01*
X1182Y356D02*
X1189Y356D01*
X1143Y355D02*
X1152Y355D01*
X1164Y355D02*
X1172Y355D01*
X1182Y355D02*
X1189Y355D01*
X1143Y354D02*
X1151Y354D01*
X1164Y354D02*
X1172Y354D01*
X1182Y354D02*
X1189Y354D01*
X1088Y353D02*
X1122Y353D01*
X1143Y353D02*
X1150Y353D01*
X1164Y353D02*
X1172Y353D01*
X1182Y353D02*
X1189Y353D01*
X1087Y352D02*
X1122Y352D01*
X1143Y352D02*
X1150Y352D01*
X1164Y352D02*
X1172Y352D01*
X1182Y352D02*
X1189Y352D01*
X1086Y351D02*
X1123Y351D01*
X1143Y351D02*
X1150Y351D01*
X1164Y351D02*
X1172Y351D01*
X1182Y351D02*
X1189Y351D01*
X1085Y350D02*
X1122Y350D01*
X1143Y350D02*
X1150Y350D01*
X1164Y350D02*
X1172Y350D01*
X1182Y350D02*
X1189Y350D01*
X1084Y349D02*
X1122Y349D01*
X1143Y349D02*
X1150Y349D01*
X1164Y349D02*
X1172Y349D01*
X1182Y349D02*
X1189Y349D01*
X1084Y348D02*
X1090Y348D01*
X1099Y348D02*
X1105Y348D01*
X1113Y348D02*
X1119Y348D01*
X1143Y348D02*
X1150Y348D01*
X1164Y348D02*
X1172Y348D01*
X1182Y348D02*
X1189Y348D01*
X1083Y347D02*
X1088Y347D01*
X1098Y347D02*
X1104Y347D01*
X1114Y347D02*
X1120Y347D01*
X1143Y347D02*
X1150Y347D01*
X1164Y347D02*
X1172Y347D01*
X1182Y347D02*
X1189Y347D01*
X1083Y346D02*
X1088Y346D01*
X1097Y346D02*
X1103Y346D01*
X1115Y346D02*
X1121Y346D01*
X1143Y346D02*
X1150Y346D01*
X1164Y346D02*
X1172Y346D01*
X1182Y346D02*
X1189Y346D01*
X1082Y345D02*
X1087Y345D01*
X1097Y345D02*
X1103Y345D01*
X1116Y345D02*
X1122Y345D01*
X1143Y345D02*
X1150Y345D01*
X1164Y345D02*
X1172Y345D01*
X1182Y345D02*
X1189Y345D01*
X1082Y344D02*
X1087Y344D01*
X1096Y344D02*
X1102Y344D01*
X1117Y344D02*
X1122Y344D01*
X1143Y344D02*
X1150Y344D01*
X1164Y344D02*
X1172Y344D01*
X1182Y344D02*
X1189Y344D01*
X1082Y343D02*
X1087Y343D01*
X1096Y343D02*
X1101Y343D01*
X1118Y343D02*
X1122Y343D01*
X1143Y343D02*
X1150Y343D01*
X1164Y343D02*
X1172Y343D01*
X1182Y343D02*
X1189Y343D01*
X1082Y342D02*
X1087Y342D01*
X1096Y342D02*
X1100Y342D01*
X1118Y342D02*
X1123Y342D01*
X1143Y342D02*
X1150Y342D01*
X1164Y342D02*
X1172Y342D01*
X1182Y342D02*
X1189Y342D01*
X1082Y341D02*
X1087Y341D01*
X1096Y341D02*
X1100Y341D01*
X1118Y341D02*
X1123Y341D01*
X1143Y341D02*
X1150Y341D01*
X1164Y341D02*
X1172Y341D01*
X1182Y341D02*
X1189Y341D01*
X1082Y340D02*
X1087Y340D01*
X1096Y340D02*
X1100Y340D01*
X1118Y340D02*
X1123Y340D01*
X1143Y340D02*
X1151Y340D01*
X1164Y340D02*
X1172Y340D01*
X1182Y340D02*
X1189Y340D01*
X1082Y339D02*
X1087Y339D01*
X1096Y339D02*
X1100Y339D01*
X1118Y339D02*
X1123Y339D01*
X1143Y339D02*
X1151Y339D01*
X1163Y339D02*
X1171Y339D01*
X1183Y339D02*
X1189Y339D01*
X1082Y338D02*
X1087Y338D01*
X1096Y338D02*
X1100Y338D01*
X1118Y338D02*
X1123Y338D01*
X1143Y338D02*
X1152Y338D01*
X1162Y338D02*
X1171Y338D01*
X1184Y338D02*
X1188Y338D01*
X1082Y337D02*
X1087Y337D01*
X1096Y337D02*
X1100Y337D01*
X1118Y337D02*
X1123Y337D01*
X1144Y337D02*
X1171Y337D01*
X1082Y336D02*
X1087Y336D01*
X1096Y336D02*
X1100Y336D01*
X1118Y336D02*
X1123Y336D01*
X1144Y336D02*
X1170Y336D01*
X1082Y335D02*
X1087Y335D01*
X1096Y335D02*
X1101Y335D01*
X1117Y335D02*
X1122Y335D01*
X1145Y335D02*
X1170Y335D01*
X1082Y334D02*
X1087Y334D01*
X1096Y334D02*
X1102Y334D01*
X1116Y334D02*
X1122Y334D01*
X1145Y334D02*
X1169Y334D01*
X1082Y333D02*
X1087Y333D01*
X1097Y333D02*
X1103Y333D01*
X1115Y333D02*
X1121Y333D01*
X1146Y333D02*
X1168Y333D01*
X1082Y332D02*
X1086Y332D01*
X1098Y332D02*
X1121Y332D01*
X1147Y332D02*
X1167Y332D01*
X1083Y331D02*
X1086Y331D01*
X1099Y331D02*
X1120Y331D01*
X1148Y331D02*
X1166Y331D01*
X1100Y330D02*
X1119Y330D01*
X1150Y330D02*
X1164Y330D01*
X1101Y329D02*
X1118Y329D01*
X1154Y329D02*
X1161Y329D01*
X1102Y328D02*
X1116Y328D01*
X1130Y315D02*
X1133Y315D01*
X1129Y314D02*
X1134Y314D01*
X1127Y313D02*
X1134Y313D01*
X1125Y312D02*
X1134Y312D01*
X1124Y311D02*
X1133Y311D01*
X1122Y310D02*
X1132Y310D01*
X1120Y309D02*
X1130Y309D01*
X1149Y309D02*
X1155Y309D01*
X1195Y309D02*
X1200Y309D01*
X1119Y308D02*
X1128Y308D01*
X1147Y308D02*
X1157Y308D01*
X1194Y308D02*
X1202Y308D01*
X1117Y307D02*
X1126Y307D01*
X1146Y307D02*
X1158Y307D01*
X1193Y307D02*
X1203Y307D01*
X1115Y306D02*
X1125Y306D01*
X1145Y306D02*
X1159Y306D01*
X1193Y306D02*
X1204Y306D01*
X1113Y305D02*
X1123Y305D01*
X1144Y305D02*
X1161Y305D01*
X1193Y305D02*
X1205Y305D01*
X1112Y304D02*
X1121Y304D01*
X1144Y304D02*
X1162Y304D01*
X1193Y304D02*
X1206Y304D01*
X1110Y303D02*
X1120Y303D01*
X1143Y303D02*
X1163Y303D01*
X1193Y303D02*
X1206Y303D01*
X1108Y302D02*
X1118Y302D01*
X1143Y302D02*
X1164Y302D01*
X1194Y302D02*
X1207Y302D01*
X1107Y301D02*
X1116Y301D01*
X1143Y301D02*
X1151Y301D01*
X1153Y301D02*
X1166Y301D01*
X1198Y301D02*
X1207Y301D01*
X1105Y300D02*
X1115Y300D01*
X1143Y300D02*
X1150Y300D01*
X1154Y300D02*
X1167Y300D01*
X1199Y300D02*
X1207Y300D01*
X1103Y299D02*
X1113Y299D01*
X1143Y299D02*
X1150Y299D01*
X1155Y299D02*
X1168Y299D01*
X1200Y299D02*
X1207Y299D01*
X1101Y298D02*
X1111Y298D01*
X1143Y298D02*
X1150Y298D01*
X1156Y298D02*
X1170Y298D01*
X1200Y298D02*
X1207Y298D01*
X1100Y297D02*
X1109Y297D01*
X1143Y297D02*
X1150Y297D01*
X1158Y297D02*
X1171Y297D01*
X1200Y297D02*
X1207Y297D01*
X1098Y296D02*
X1108Y296D01*
X1143Y296D02*
X1150Y296D01*
X1159Y296D02*
X1172Y296D01*
X1200Y296D02*
X1207Y296D01*
X1096Y295D02*
X1106Y295D01*
X1143Y295D02*
X1150Y295D01*
X1160Y295D02*
X1173Y295D01*
X1200Y295D02*
X1207Y295D01*
X1095Y294D02*
X1104Y294D01*
X1143Y294D02*
X1150Y294D01*
X1162Y294D02*
X1175Y294D01*
X1200Y294D02*
X1207Y294D01*
X1094Y293D02*
X1103Y293D01*
X1143Y293D02*
X1150Y293D01*
X1163Y293D02*
X1176Y293D01*
X1200Y293D02*
X1207Y293D01*
X1094Y292D02*
X1101Y292D01*
X1143Y292D02*
X1150Y292D01*
X1164Y292D02*
X1177Y292D01*
X1200Y292D02*
X1207Y292D01*
X1094Y291D02*
X1099Y291D01*
X1143Y291D02*
X1150Y291D01*
X1166Y291D02*
X1179Y291D01*
X1200Y291D02*
X1207Y291D01*
X1094Y290D02*
X1097Y290D01*
X1143Y290D02*
X1150Y290D01*
X1167Y290D02*
X1180Y290D01*
X1200Y290D02*
X1207Y290D01*
X1143Y289D02*
X1150Y289D01*
X1168Y289D02*
X1181Y289D01*
X1200Y289D02*
X1207Y289D01*
X1143Y288D02*
X1150Y288D01*
X1169Y288D02*
X1182Y288D01*
X1200Y288D02*
X1207Y288D01*
X1143Y287D02*
X1150Y287D01*
X1171Y287D02*
X1184Y287D01*
X1200Y287D02*
X1207Y287D01*
X1143Y286D02*
X1150Y286D01*
X1172Y286D02*
X1185Y286D01*
X1200Y286D02*
X1207Y286D01*
X1143Y285D02*
X1150Y285D01*
X1173Y285D02*
X1186Y285D01*
X1200Y285D02*
X1207Y285D01*
X1143Y284D02*
X1150Y284D01*
X1175Y284D02*
X1188Y284D01*
X1200Y284D02*
X1207Y284D01*
X1143Y283D02*
X1150Y283D01*
X1176Y283D02*
X1189Y283D01*
X1200Y283D02*
X1207Y283D01*
X1143Y282D02*
X1150Y282D01*
X1177Y282D02*
X1190Y282D01*
X1200Y282D02*
X1207Y282D01*
X1143Y281D02*
X1150Y281D01*
X1178Y281D02*
X1191Y281D01*
X1200Y281D02*
X1207Y281D01*
X1143Y280D02*
X1150Y280D01*
X1180Y280D02*
X1193Y280D01*
X1200Y280D02*
X1207Y280D01*
X1143Y279D02*
X1150Y279D01*
X1181Y279D02*
X1194Y279D01*
X1200Y279D02*
X1207Y279D01*
X1143Y278D02*
X1151Y278D01*
X1182Y278D02*
X1195Y278D01*
X1200Y278D02*
X1207Y278D01*
X1131Y277D02*
X1133Y277D01*
X1143Y277D02*
X1151Y277D01*
X1184Y277D02*
X1197Y277D01*
X1200Y277D02*
X1207Y277D01*
X1129Y276D02*
X1134Y276D01*
X1143Y276D02*
X1155Y276D01*
X1185Y276D02*
X1207Y276D01*
X1127Y275D02*
X1134Y275D01*
X1144Y275D02*
X1156Y275D01*
X1186Y275D02*
X1207Y275D01*
X1126Y274D02*
X1134Y274D01*
X1144Y274D02*
X1157Y274D01*
X1187Y274D02*
X1207Y274D01*
X1124Y273D02*
X1133Y273D01*
X1145Y273D02*
X1157Y273D01*
X1189Y273D02*
X1206Y273D01*
X1122Y272D02*
X1132Y272D01*
X1146Y272D02*
X1157Y272D01*
X1190Y272D02*
X1205Y272D01*
X1121Y271D02*
X1130Y271D01*
X1146Y271D02*
X1157Y271D01*
X1191Y271D02*
X1205Y271D01*
X1119Y270D02*
X1129Y270D01*
X1148Y270D02*
X1157Y270D01*
X1193Y270D02*
X1204Y270D01*
X1117Y269D02*
X1127Y269D01*
X1149Y269D02*
X1156Y269D01*
X1194Y269D02*
X1202Y269D01*
X1115Y268D02*
X1125Y268D01*
X1153Y268D02*
X1154Y268D01*
X1198Y268D02*
X1199Y268D01*
X1114Y267D02*
X1123Y267D01*
X1112Y266D02*
X1122Y266D01*
X1110Y265D02*
X1120Y265D01*
X1109Y264D02*
X1118Y264D01*
X1107Y263D02*
X1117Y263D01*
X1105Y262D02*
X1115Y262D01*
X1103Y261D02*
X1113Y261D01*
X1102Y260D02*
X1111Y260D01*
X1100Y259D02*
X1110Y259D01*
X1098Y258D02*
X1108Y258D01*
X1097Y257D02*
X1106Y257D01*
X1095Y256D02*
X1105Y256D01*
X1094Y255D02*
X1103Y255D01*
X1094Y254D02*
X1101Y254D01*
X1094Y253D02*
X1099Y253D01*
X1094Y252D02*
X1098Y252D01*
X1145Y248D02*
X1148Y248D01*
X1202Y248D02*
X1205Y248D01*
X1144Y247D02*
X1149Y247D01*
X1201Y247D02*
X1206Y247D01*
X1143Y246D02*
X1150Y246D01*
X1200Y246D02*
X1207Y246D01*
X1143Y245D02*
X1150Y245D01*
X1200Y245D02*
X1207Y245D01*
X1143Y244D02*
X1150Y244D01*
X1200Y244D02*
X1207Y244D01*
X1143Y243D02*
X1150Y243D01*
X1200Y243D02*
X1207Y243D01*
X1143Y242D02*
X1150Y242D01*
X1200Y242D02*
X1207Y242D01*
X1143Y241D02*
X1150Y241D01*
X1200Y241D02*
X1207Y241D01*
X1143Y240D02*
X1150Y240D01*
X1200Y240D02*
X1207Y240D01*
X1143Y239D02*
X1150Y239D01*
X1200Y239D02*
X1207Y239D01*
X1143Y238D02*
X1150Y238D01*
X1200Y238D02*
X1207Y238D01*
X1143Y237D02*
X1150Y237D01*
X1200Y237D02*
X1207Y237D01*
X1143Y236D02*
X1150Y236D01*
X1200Y236D02*
X1207Y236D01*
X1143Y235D02*
X1150Y235D01*
X1200Y235D02*
X1207Y235D01*
X1143Y234D02*
X1150Y234D01*
X1200Y234D02*
X1207Y234D01*
X1143Y233D02*
X1150Y233D01*
X1200Y233D02*
X1207Y233D01*
X1143Y232D02*
X1207Y232D01*
X1102Y231D02*
X1108Y231D01*
X1120Y231D02*
X1126Y231D01*
X1143Y231D02*
X1207Y231D01*
X1101Y230D02*
X1109Y230D01*
X1119Y230D02*
X1127Y230D01*
X1143Y230D02*
X1207Y230D01*
X1100Y229D02*
X1109Y229D01*
X1118Y229D02*
X1127Y229D01*
X1143Y229D02*
X1207Y229D01*
X1100Y228D02*
X1109Y228D01*
X1118Y228D02*
X1127Y228D01*
X1143Y228D02*
X1207Y228D01*
X1100Y227D02*
X1109Y227D01*
X1118Y227D02*
X1127Y227D01*
X1143Y227D02*
X1207Y227D01*
X1100Y226D02*
X1109Y226D01*
X1118Y226D02*
X1127Y226D01*
X1143Y226D02*
X1207Y226D01*
X1100Y225D02*
X1109Y225D01*
X1118Y225D02*
X1127Y225D01*
X1143Y225D02*
X1207Y225D01*
X1100Y224D02*
X1109Y224D01*
X1118Y224D02*
X1127Y224D01*
X1143Y224D02*
X1207Y224D01*
X1100Y223D02*
X1109Y223D01*
X1118Y223D02*
X1127Y223D01*
X1143Y223D02*
X1150Y223D01*
X1200Y223D02*
X1207Y223D01*
X1101Y222D02*
X1109Y222D01*
X1119Y222D02*
X1127Y222D01*
X1143Y222D02*
X1150Y222D01*
X1200Y222D02*
X1207Y222D01*
X1102Y221D02*
X1108Y221D01*
X1120Y221D02*
X1126Y221D01*
X1143Y221D02*
X1150Y221D01*
X1200Y221D02*
X1207Y221D01*
X1143Y220D02*
X1150Y220D01*
X1200Y220D02*
X1207Y220D01*
X1143Y219D02*
X1150Y219D01*
X1200Y219D02*
X1207Y219D01*
X1143Y218D02*
X1150Y218D01*
X1200Y218D02*
X1207Y218D01*
X1143Y217D02*
X1150Y217D01*
X1200Y217D02*
X1207Y217D01*
X1143Y216D02*
X1150Y216D01*
X1200Y216D02*
X1207Y216D01*
X1143Y215D02*
X1150Y215D01*
X1200Y215D02*
X1207Y215D01*
X1143Y214D02*
X1150Y214D01*
X1200Y214D02*
X1207Y214D01*
X1143Y213D02*
X1150Y213D01*
X1200Y213D02*
X1207Y213D01*
X1143Y212D02*
X1150Y212D01*
X1200Y212D02*
X1207Y212D01*
X1143Y211D02*
X1150Y211D01*
X1200Y211D02*
X1207Y211D01*
X1143Y210D02*
X1150Y210D01*
X1200Y210D02*
X1207Y210D01*
X1144Y209D02*
X1150Y209D01*
X1200Y209D02*
X1206Y209D01*
X1144Y208D02*
X1149Y208D01*
X1201Y208D02*
X1206Y208D01*
X1098Y200D02*
X1104Y200D01*
X1117Y200D02*
X1119Y200D01*
X1097Y199D02*
X1106Y199D01*
X1116Y199D02*
X1120Y199D01*
X1096Y198D02*
X1107Y198D01*
X1116Y198D02*
X1121Y198D01*
X1095Y197D02*
X1108Y197D01*
X1116Y197D02*
X1122Y197D01*
X1094Y196D02*
X1108Y196D01*
X1117Y196D02*
X1122Y196D01*
X1094Y195D02*
X1099Y195D01*
X1103Y195D02*
X1109Y195D01*
X1118Y195D02*
X1122Y195D01*
X1094Y194D02*
X1098Y194D01*
X1104Y194D02*
X1109Y194D01*
X1118Y194D02*
X1123Y194D01*
X1094Y193D02*
X1098Y193D01*
X1105Y193D02*
X1109Y193D01*
X1118Y193D02*
X1123Y193D01*
X1094Y192D02*
X1098Y192D01*
X1105Y192D02*
X1110Y192D01*
X1118Y192D02*
X1123Y192D01*
X1094Y191D02*
X1098Y191D01*
X1106Y191D02*
X1110Y191D01*
X1118Y191D02*
X1123Y191D01*
X1094Y190D02*
X1098Y190D01*
X1106Y190D02*
X1111Y190D01*
X1118Y190D02*
X1123Y190D01*
X1094Y189D02*
X1098Y189D01*
X1106Y189D02*
X1111Y189D01*
X1118Y189D02*
X1123Y189D01*
X1094Y188D02*
X1098Y188D01*
X1107Y188D02*
X1112Y188D01*
X1118Y188D02*
X1123Y188D01*
X1094Y187D02*
X1098Y187D01*
X1107Y187D02*
X1112Y187D01*
X1118Y187D02*
X1123Y187D01*
X1152Y187D02*
X1205Y187D01*
X1094Y186D02*
X1098Y186D01*
X1108Y186D02*
X1112Y186D01*
X1118Y186D02*
X1123Y186D01*
X1150Y186D02*
X1206Y186D01*
X1094Y185D02*
X1098Y185D01*
X1108Y185D02*
X1113Y185D01*
X1118Y185D02*
X1123Y185D01*
X1148Y185D02*
X1207Y185D01*
X1094Y184D02*
X1098Y184D01*
X1109Y184D02*
X1113Y184D01*
X1118Y184D02*
X1123Y184D01*
X1147Y184D02*
X1207Y184D01*
X1094Y183D02*
X1098Y183D01*
X1109Y183D02*
X1114Y183D01*
X1118Y183D02*
X1123Y183D01*
X1145Y183D02*
X1207Y183D01*
X1094Y182D02*
X1098Y182D01*
X1109Y182D02*
X1114Y182D01*
X1118Y182D02*
X1123Y182D01*
X1144Y182D02*
X1207Y182D01*
X1094Y181D02*
X1098Y181D01*
X1110Y181D02*
X1115Y181D01*
X1118Y181D02*
X1123Y181D01*
X1143Y181D02*
X1206Y181D01*
X1094Y180D02*
X1099Y180D01*
X1110Y180D02*
X1122Y180D01*
X1143Y180D02*
X1205Y180D01*
X1094Y179D02*
X1099Y179D01*
X1111Y179D02*
X1122Y179D01*
X1143Y179D02*
X1154Y179D01*
X1095Y178D02*
X1100Y178D01*
X1111Y178D02*
X1121Y178D01*
X1143Y178D02*
X1152Y178D01*
X1095Y177D02*
X1100Y177D01*
X1112Y177D02*
X1120Y177D01*
X1143Y177D02*
X1151Y177D01*
X1096Y176D02*
X1100Y176D01*
X1114Y176D02*
X1119Y176D01*
X1143Y176D02*
X1150Y176D01*
X1097Y175D02*
X1099Y175D01*
X1143Y175D02*
X1150Y175D01*
X1143Y174D02*
X1150Y174D01*
X1143Y173D02*
X1151Y173D01*
X1143Y172D02*
X1153Y172D01*
X1143Y171D02*
X1182Y171D01*
X1143Y170D02*
X1184Y170D01*
X1143Y169D02*
X1185Y169D01*
X1144Y168D02*
X1186Y168D01*
X1145Y167D02*
X1186Y167D01*
X1145Y166D02*
X1186Y166D01*
X1144Y165D02*
X1185Y165D01*
X1143Y164D02*
X1185Y164D01*
X1143Y163D02*
X1183Y163D01*
X1101Y162D02*
X1115Y162D01*
X1143Y162D02*
X1153Y162D01*
X1099Y161D02*
X1117Y161D01*
X1143Y161D02*
X1152Y161D01*
X1098Y160D02*
X1118Y160D01*
X1143Y160D02*
X1150Y160D01*
X1097Y159D02*
X1119Y159D01*
X1143Y159D02*
X1150Y159D01*
X1097Y158D02*
X1120Y158D01*
X1143Y158D02*
X1150Y158D01*
X1096Y157D02*
X1102Y157D01*
X1114Y157D02*
X1121Y157D01*
X1143Y157D02*
X1150Y157D01*
X1095Y156D02*
X1101Y156D01*
X1115Y156D02*
X1121Y156D01*
X1143Y156D02*
X1152Y156D01*
X1094Y155D02*
X1100Y155D01*
X1116Y155D02*
X1122Y155D01*
X1143Y155D02*
X1153Y155D01*
X1093Y154D02*
X1099Y154D01*
X1117Y154D02*
X1123Y154D01*
X1143Y154D02*
X1205Y154D01*
X1093Y153D02*
X1098Y153D01*
X1118Y153D02*
X1123Y153D01*
X1143Y153D02*
X1206Y153D01*
X1093Y152D02*
X1098Y152D01*
X1119Y152D02*
X1124Y152D01*
X1144Y152D02*
X1207Y152D01*
X1092Y151D02*
X1097Y151D01*
X1119Y151D02*
X1124Y151D01*
X1145Y151D02*
X1207Y151D01*
X1092Y150D02*
X1097Y150D01*
X1119Y150D02*
X1124Y150D01*
X1146Y150D02*
X1207Y150D01*
X1092Y149D02*
X1097Y149D01*
X1119Y149D02*
X1124Y149D01*
X1148Y149D02*
X1207Y149D01*
X1093Y148D02*
X1097Y148D01*
X1119Y148D02*
X1124Y148D01*
X1150Y148D02*
X1206Y148D01*
X1093Y147D02*
X1098Y147D01*
X1118Y147D02*
X1124Y147D01*
X1151Y147D02*
X1206Y147D01*
X1093Y146D02*
X1099Y146D01*
X1117Y146D02*
X1123Y146D01*
X1094Y145D02*
X1100Y145D01*
X1116Y145D02*
X1123Y145D01*
X1094Y144D02*
X1101Y144D01*
X1115Y144D02*
X1122Y144D01*
X1095Y143D02*
X1102Y143D01*
X1114Y143D02*
X1121Y143D01*
X1096Y142D02*
X1103Y142D01*
X1113Y142D02*
X1120Y142D01*
X1083Y141D02*
X1123Y141D01*
X1083Y140D02*
X1124Y140D01*
X1082Y139D02*
X1124Y139D01*
X1083Y138D02*
X1124Y138D01*
X1083Y137D02*
X1123Y137D01*
X1152Y126D02*
X1159Y126D01*
X1149Y125D02*
X1161Y125D01*
X1180Y125D02*
X1184Y125D01*
X1099Y124D02*
X1101Y124D01*
X1148Y124D02*
X1162Y124D01*
X1179Y124D02*
X1185Y124D01*
X1097Y123D02*
X1102Y123D01*
X1147Y123D02*
X1164Y123D01*
X1179Y123D02*
X1186Y123D01*
X1096Y122D02*
X1102Y122D01*
X1146Y122D02*
X1165Y122D01*
X1178Y122D02*
X1187Y122D01*
X1095Y121D02*
X1102Y121D01*
X1119Y121D02*
X1122Y121D01*
X1145Y121D02*
X1165Y121D01*
X1179Y121D02*
X1188Y121D01*
X1094Y120D02*
X1101Y120D01*
X1118Y120D02*
X1122Y120D01*
X1144Y120D02*
X1166Y120D01*
X1179Y120D02*
X1188Y120D01*
X1094Y119D02*
X1100Y119D01*
X1118Y119D02*
X1123Y119D01*
X1144Y119D02*
X1166Y119D01*
X1180Y119D02*
X1189Y119D01*
X1094Y118D02*
X1098Y118D01*
X1118Y118D02*
X1123Y118D01*
X1144Y118D02*
X1154Y118D01*
X1157Y118D02*
X1167Y118D01*
X1180Y118D02*
X1189Y118D01*
X1094Y117D02*
X1098Y117D01*
X1118Y117D02*
X1123Y117D01*
X1143Y117D02*
X1152Y117D01*
X1159Y117D02*
X1167Y117D01*
X1181Y117D02*
X1189Y117D01*
X1094Y116D02*
X1098Y116D01*
X1118Y116D02*
X1123Y116D01*
X1143Y116D02*
X1151Y116D01*
X1160Y116D02*
X1168Y116D01*
X1182Y116D02*
X1189Y116D01*
X1094Y115D02*
X1098Y115D01*
X1118Y115D02*
X1123Y115D01*
X1143Y115D02*
X1151Y115D01*
X1160Y115D02*
X1168Y115D01*
X1182Y115D02*
X1189Y115D01*
X1094Y114D02*
X1098Y114D01*
X1118Y114D02*
X1123Y114D01*
X1143Y114D02*
X1150Y114D01*
X1160Y114D02*
X1169Y114D01*
X1182Y114D02*
X1189Y114D01*
X1094Y113D02*
X1098Y113D01*
X1118Y113D02*
X1123Y113D01*
X1143Y113D02*
X1150Y113D01*
X1161Y113D02*
X1169Y113D01*
X1182Y113D02*
X1189Y113D01*
X1094Y112D02*
X1098Y112D01*
X1118Y112D02*
X1123Y112D01*
X1143Y112D02*
X1150Y112D01*
X1161Y112D02*
X1170Y112D01*
X1182Y112D02*
X1189Y112D01*
X1094Y111D02*
X1098Y111D01*
X1118Y111D02*
X1123Y111D01*
X1143Y111D02*
X1150Y111D01*
X1162Y111D02*
X1170Y111D01*
X1182Y111D02*
X1189Y111D01*
X1094Y110D02*
X1098Y110D01*
X1118Y110D02*
X1123Y110D01*
X1143Y110D02*
X1150Y110D01*
X1162Y110D02*
X1170Y110D01*
X1182Y110D02*
X1189Y110D01*
X1094Y109D02*
X1099Y109D01*
X1118Y109D02*
X1123Y109D01*
X1143Y109D02*
X1150Y109D01*
X1163Y109D02*
X1171Y109D01*
X1182Y109D02*
X1189Y109D01*
X1094Y108D02*
X1131Y108D01*
X1143Y108D02*
X1150Y108D01*
X1163Y108D02*
X1171Y108D01*
X1182Y108D02*
X1189Y108D01*
X1095Y107D02*
X1131Y107D01*
X1143Y107D02*
X1150Y107D01*
X1164Y107D02*
X1172Y107D01*
X1182Y107D02*
X1189Y107D01*
X1096Y106D02*
X1132Y106D01*
X1143Y106D02*
X1150Y106D01*
X1164Y106D02*
X1172Y106D01*
X1182Y106D02*
X1189Y106D01*
X1097Y105D02*
X1131Y105D01*
X1143Y105D02*
X1150Y105D01*
X1164Y105D02*
X1173Y105D01*
X1182Y105D02*
X1189Y105D01*
X1098Y104D02*
X1131Y104D01*
X1143Y104D02*
X1150Y104D01*
X1165Y104D02*
X1173Y104D01*
X1182Y104D02*
X1189Y104D01*
X1118Y103D02*
X1123Y103D01*
X1143Y103D02*
X1150Y103D01*
X1165Y103D02*
X1173Y103D01*
X1182Y103D02*
X1189Y103D01*
X1118Y102D02*
X1123Y102D01*
X1143Y102D02*
X1150Y102D01*
X1166Y102D02*
X1174Y102D01*
X1182Y102D02*
X1189Y102D01*
X1118Y101D02*
X1123Y101D01*
X1143Y101D02*
X1150Y101D01*
X1166Y101D02*
X1174Y101D01*
X1182Y101D02*
X1189Y101D01*
X1118Y100D02*
X1123Y100D01*
X1143Y100D02*
X1150Y100D01*
X1167Y100D02*
X1175Y100D01*
X1182Y100D02*
X1189Y100D01*
X1119Y99D02*
X1122Y99D01*
X1143Y99D02*
X1150Y99D01*
X1167Y99D02*
X1175Y99D01*
X1182Y99D02*
X1189Y99D01*
X1143Y98D02*
X1150Y98D01*
X1167Y98D02*
X1176Y98D01*
X1182Y98D02*
X1189Y98D01*
X1143Y97D02*
X1150Y97D01*
X1168Y97D02*
X1176Y97D01*
X1182Y97D02*
X1189Y97D01*
X1143Y96D02*
X1151Y96D01*
X1168Y96D02*
X1176Y96D01*
X1182Y96D02*
X1189Y96D01*
X1143Y95D02*
X1151Y95D01*
X1169Y95D02*
X1177Y95D01*
X1181Y95D02*
X1189Y95D01*
X1143Y94D02*
X1152Y94D01*
X1169Y94D02*
X1189Y94D01*
X1144Y93D02*
X1152Y93D01*
X1170Y93D02*
X1189Y93D01*
X1144Y92D02*
X1153Y92D01*
X1170Y92D02*
X1188Y92D01*
X1144Y91D02*
X1153Y91D01*
X1171Y91D02*
X1188Y91D01*
X1145Y90D02*
X1154Y90D01*
X1171Y90D02*
X1187Y90D01*
X1146Y89D02*
X1154Y89D01*
X1172Y89D02*
X1186Y89D01*
X1146Y88D02*
X1154Y88D01*
X1174Y88D02*
X1185Y88D01*
X1147Y87D02*
X1153Y87D01*
X1176Y87D02*
X1183Y87D01*
X1099Y86D02*
X1101Y86D01*
X1148Y86D02*
X1152Y86D01*
X1097Y85D02*
X1102Y85D01*
X1096Y84D02*
X1102Y84D01*
X1095Y83D02*
X1102Y83D01*
X1119Y83D02*
X1122Y83D01*
X1095Y82D02*
X1102Y82D01*
X1119Y82D02*
X1122Y82D01*
X1094Y81D02*
X1100Y81D01*
X1118Y81D02*
X1123Y81D01*
X1094Y80D02*
X1099Y80D01*
X1118Y80D02*
X1123Y80D01*
X1094Y79D02*
X1098Y79D01*
X1118Y79D02*
X1123Y79D01*
X1094Y78D02*
X1098Y78D01*
X1118Y78D02*
X1123Y78D01*
X1094Y77D02*
X1098Y77D01*
X1118Y77D02*
X1123Y77D01*
X1094Y76D02*
X1098Y76D01*
X1118Y76D02*
X1123Y76D01*
X1094Y75D02*
X1098Y75D01*
X1118Y75D02*
X1123Y75D01*
X1094Y74D02*
X1098Y74D01*
X1118Y74D02*
X1123Y74D01*
X1094Y73D02*
X1098Y73D01*
X1118Y73D02*
X1123Y73D01*
X1094Y72D02*
X1098Y72D01*
X1118Y72D02*
X1123Y72D01*
X1094Y71D02*
X1099Y71D01*
X1118Y71D02*
X1123Y71D01*
X1094Y70D02*
X1130Y70D01*
X1095Y69D02*
X1131Y69D01*
X1095Y68D02*
X1132Y68D01*
X1096Y67D02*
X1132Y67D01*
X1098Y66D02*
X1131Y66D01*
X1118Y65D02*
X1123Y65D01*
X1145Y65D02*
X1148Y65D01*
X1202Y65D02*
X1205Y65D01*
X1118Y64D02*
X1123Y64D01*
X1144Y64D02*
X1149Y64D01*
X1201Y64D02*
X1206Y64D01*
X1118Y63D02*
X1123Y63D01*
X1143Y63D02*
X1150Y63D01*
X1200Y63D02*
X1207Y63D01*
X1118Y62D02*
X1123Y62D01*
X1143Y62D02*
X1150Y62D01*
X1200Y62D02*
X1207Y62D01*
X1119Y61D02*
X1122Y61D01*
X1143Y61D02*
X1150Y61D01*
X1200Y61D02*
X1207Y61D01*
X1120Y60D02*
X1121Y60D01*
X1143Y60D02*
X1150Y60D01*
X1200Y60D02*
X1207Y60D01*
X1143Y59D02*
X1150Y59D01*
X1200Y59D02*
X1207Y59D01*
X1143Y58D02*
X1150Y58D01*
X1200Y58D02*
X1207Y58D01*
X1143Y57D02*
X1150Y57D01*
X1200Y57D02*
X1207Y57D01*
X1143Y56D02*
X1150Y56D01*
X1200Y56D02*
X1207Y56D01*
X1143Y55D02*
X1150Y55D01*
X1200Y55D02*
X1207Y55D01*
X1143Y54D02*
X1150Y54D01*
X1200Y54D02*
X1207Y54D01*
X1143Y53D02*
X1150Y53D01*
X1200Y53D02*
X1207Y53D01*
X1143Y52D02*
X1150Y52D01*
X1200Y52D02*
X1207Y52D01*
X1143Y51D02*
X1150Y51D01*
X1200Y51D02*
X1207Y51D01*
X1143Y50D02*
X1150Y50D01*
X1200Y50D02*
X1207Y50D01*
X1143Y49D02*
X1207Y49D01*
X1096Y48D02*
X1097Y48D01*
X1143Y48D02*
X1207Y48D01*
X1094Y47D02*
X1117Y47D01*
X1143Y47D02*
X1207Y47D01*
X1094Y46D02*
X1119Y46D01*
X1143Y46D02*
X1207Y46D01*
X1094Y45D02*
X1120Y45D01*
X1143Y45D02*
X1207Y45D01*
X1094Y44D02*
X1121Y44D01*
X1143Y44D02*
X1207Y44D01*
X1095Y43D02*
X1122Y43D01*
X1143Y43D02*
X1207Y43D01*
X1116Y42D02*
X1122Y42D01*
X1143Y42D02*
X1207Y42D01*
X1118Y41D02*
X1123Y41D01*
X1143Y41D02*
X1207Y41D01*
X1118Y40D02*
X1123Y40D01*
X1143Y40D02*
X1150Y40D01*
X1200Y40D02*
X1207Y40D01*
X1118Y39D02*
X1123Y39D01*
X1143Y39D02*
X1150Y39D01*
X1200Y39D02*
X1207Y39D01*
X1118Y38D02*
X1123Y38D01*
X1143Y38D02*
X1150Y38D01*
X1200Y38D02*
X1207Y38D01*
X1118Y37D02*
X1123Y37D01*
X1143Y37D02*
X1150Y37D01*
X1200Y37D02*
X1207Y37D01*
X1118Y36D02*
X1123Y36D01*
X1143Y36D02*
X1150Y36D01*
X1200Y36D02*
X1207Y36D01*
X1118Y35D02*
X1122Y35D01*
X1143Y35D02*
X1150Y35D01*
X1200Y35D02*
X1207Y35D01*
X1117Y34D02*
X1122Y34D01*
X1143Y34D02*
X1150Y34D01*
X1200Y34D02*
X1207Y34D01*
X1117Y33D02*
X1122Y33D01*
X1143Y33D02*
X1150Y33D01*
X1200Y33D02*
X1207Y33D01*
X1116Y32D02*
X1121Y32D01*
X1143Y32D02*
X1150Y32D01*
X1200Y32D02*
X1207Y32D01*
X1115Y31D02*
X1121Y31D01*
X1143Y31D02*
X1150Y31D01*
X1200Y31D02*
X1207Y31D01*
X1115Y30D02*
X1120Y30D01*
X1143Y30D02*
X1150Y30D01*
X1200Y30D02*
X1207Y30D01*
X1114Y29D02*
X1119Y29D01*
X1143Y29D02*
X1150Y29D01*
X1200Y29D02*
X1207Y29D01*
X1113Y28D02*
X1119Y28D01*
X1143Y28D02*
X1150Y28D01*
X1200Y28D02*
X1207Y28D01*
X1096Y27D02*
X1131Y27D01*
X1143Y27D02*
X1150Y27D01*
X1200Y27D02*
X1207Y27D01*
X1094Y26D02*
X1133Y26D01*
X1144Y26D02*
X1149Y26D01*
X1201Y26D02*
X1206Y26D01*
X1094Y25D02*
X1134Y25D01*
X1145Y25D02*
X1149Y25D01*
X1202Y25D02*
X1205Y25D01*
X1094Y24D02*
X1134Y24D01*
X1094Y23D02*
X1133Y23D01*
X1095Y22D02*
X1132Y22D01*
D02*
G04 End of Silk0*
M02*