; NON-PLATED HOLES START AT T1
; THROUGH (PLATED) HOLES START AT T100
M48
INCH
T1C0.086614
T2C0.102362
T3C0.125984
T100C0.035000
T101C0.125984
T102C0.086614
T103C0.036000
T104C0.035433
T105C0.118000
T106C0.038000
%
T1
X011785Y019955
X007723Y019941
X003026Y019992
X016468Y019896
T2
X014127Y019937
X005368Y019930
T3
X018414Y001413
X001388Y018731
X000912Y001459
X018060Y018728
T100
X002660Y011991
X013660Y004977
X008660Y010579
X015474Y015522
X005660Y005991
X016660Y008977
X016660Y009977
X013660Y009977
X005660Y004991
X002660Y012991
X013660Y011977
X006749Y016301
X002660Y009991
X013660Y008977
X013660Y010977
X016660Y007977
X016660Y006977
X015988Y014000
X009660Y010579
X003276Y016136
X005660Y006991
X002660Y008991
X009660Y014579
X005660Y010991
X016660Y011977
X008660Y014579
X005660Y007991
X012712Y016295
X016293Y016096
X002660Y006991
X005660Y012991
X002660Y007991
X016660Y005977
X002660Y010991
X013660Y007977
X005660Y011991
X016660Y010977
X003473Y014007
X016660Y004977
X002660Y004991
X013660Y012977
X013660Y006977
X004095Y015562
X013660Y005977
X005660Y008991
X002660Y005991
X005660Y009991
X016660Y012977
T101
X003664Y003874
T102
X005363Y019917
X014122Y019927
T103
X012660Y006406
X006660Y014406
X012660Y003406
X006660Y007406
X006660Y004406
X006660Y002406
X006660Y001406
X012660Y008406
X012660Y012406
X006660Y015406
X012660Y009406
X006660Y011406
X012660Y011406
X006660Y013406
X012660Y015406
X012660Y013406
X006660Y012406
X012660Y010406
X006660Y005406
X012660Y007406
X006660Y008406
X012660Y004406
X012660Y005406
X006660Y010406
X012660Y002406
X006660Y006406
X012660Y014406
X006660Y003406
X006660Y009406
X012660Y001406
T104
X015460Y018431
X004851Y018421
X006702Y018421
X004024Y017437
X012783Y017447
X012783Y018431
X004024Y018421
X015460Y017447
X013610Y018431
X006702Y017437
X005875Y018421
X014634Y018431
T105
X005145Y002623
X003674Y000992
T106
X001660Y012579
X017660Y005579
X000660Y007579
X001660Y010579
X000660Y005579
X017660Y006579
X018660Y008579
X017660Y007579
X000660Y010579
X017660Y011579
X000660Y008579
X018660Y012579
X001660Y008579
X018660Y007579
X017660Y009579
X000660Y009579
X018660Y005579
X001660Y005579
X001660Y011579
X001660Y006579
X018660Y006579
X018660Y010579
X001660Y007579
X017660Y008579
X017660Y012579
X000660Y006579
X001660Y009579
X000660Y012579
X017660Y010579
X018660Y009579
X000660Y011579
X018660Y011579
T00
M30
